<?xml version="1.0" encoding="UTF-8" standalone="no"?>
<!-- Created with Inkscape (http://www.inkscape.org/) -->

<svg
   xmlns:dc="http://purl.org/dc/elements/1.1/"
   xmlns:cc="http://creativecommons.org/ns#"
   xmlns:rdf="http://www.w3.org/1999/02/22-rdf-syntax-ns#"
   xmlns:svg="http://www.w3.org/2000/svg"
   xmlns="http://www.w3.org/2000/svg"
   xmlns:sodipodi="http://sodipodi.sourceforge.net/DTD/sodipodi-0.dtd"
   xmlns:inkscape="http://www.inkscape.org/namespaces/inkscape"
   width="15.002999mm"
   height="3.5130653mm"
   viewBox="0 0 15.002999 3.5130653"
   version="1.1"
   id="svg8"
   inkscape:version="0.92.0 r15299"
   sodipodi:docname="logo.svg">
  <defs
     id="defs2" />
  <sodipodi:namedview
     id="base"
     pagecolor="#ffffff"
     bordercolor="#666666"
     borderopacity="1.0"
     inkscape:pageopacity="0.0"
     inkscape:pageshadow="2"
     inkscape:zoom="15.855873"
     inkscape:cx="20.513148"
     inkscape:cy="1.4551392"
     inkscape:document-units="mm"
     inkscape:current-layer="g4573"
     showgrid="false"
     fit-margin-top="0"
     fit-margin-left="0"
     fit-margin-right="0"
     fit-margin-bottom="0"
     inkscape:window-width="1600"
     inkscape:window-height="1136"
     inkscape:window-x="0"
     inkscape:window-y="27"
     inkscape:window-maximized="1" />
  <metadata
     id="metadata5">
    <rdf:RDF>
      <cc:Work
         rdf:about="">
        <dc:format>image/svg+xml</dc:format>
        <dc:type
           rdf:resource="http://purl.org/dc/dcmitype/StillImage" />
        <dc:title></dc:title>
      </cc:Work>
    </rdf:RDF>
  </metadata>
  <g
     inkscape:label="Layer 1"
     inkscape:groupmode="layer"
     id="layer1"
     transform="translate(-61.616774,-76.528594)"
     style="display:none">
    <text
       xml:space="preserve"
       style="font-style:normal;font-variant:normal;font-weight:normal;font-stretch:normal;font-size:2.50931525px;line-height:1.56832194px;font-family:Legothick;-inkscape-font-specification:Legothick;letter-spacing:0px;word-spacing:0px;fill:#000000;fill-opacity:1;stroke:none;stroke-width:0.06273288px;stroke-linecap:butt;stroke-linejoin:miter;stroke-opacity:1"
       x="61.167526"
       y="80.041115"
       id="text4487"
       transform="scale(0.99999316,1.0000068)"><tspan
         sodipodi:role="line"
         id="tspan4485"
         x="61.167526"
         y="80.041115"
         style="font-style:italic;font-variant:normal;font-weight:normal;font-stretch:normal;font-size:4.68405533px;font-family:Legothick;-inkscape-font-specification:'Legothick Italic';stroke-width:0.06273288px">YAMSEK</tspan></text>
  </g>
  <g
     style="display:inline"
     transform="translate(-61.616774,-76.528594)"
     id="g4573"
     inkscape:groupmode="layer"
     inkscape:label="SilkS">
    <path
       style="font-style:italic;font-variant:normal;font-weight:normal;font-stretch:normal;font-size:4.68405533px;line-height:1.56832194px;font-family:Legothick;-inkscape-font-specification:'Legothick Italic';letter-spacing:0px;word-spacing:0px;fill:#000000;fill-opacity:1;stroke:none;stroke-width:0.20524667px;stroke-linecap:butt;stroke-linejoin:miter;stroke-opacity:1"
       d="M 16.394531 0.89257812 C 14.095782 0.89257812 12.451947 2.7463817 11.460938 6.4550781 L 10.386719 10.470703 C 10.335649 10.66482 10.310547 10.847797 10.310547 11.021484 C 10.310547 11.450589 10.454169 11.78259 10.740234 12.017578 C 11.026299 12.252564 11.37799 12.371094 11.796875 12.371094 C 12.297489 12.371094 12.762306 12.222071 13.191406 11.925781 C 13.67159 11.588627 14.003601 11.13464 14.1875 10.5625 C 14.14663 10.725952 14.126953 10.878432 14.126953 11.021484 C 14.126953 11.450589 14.274033 11.787997 14.570312 12.033203 C 14.835945 12.257984 15.178774 12.371094 15.597656 12.371094 C 16.118707 12.371094 16.603202 12.211253 17.052734 11.894531 C 17.543133 11.536943 17.871689 11.063275 18.035156 10.470703 L 18.570312 8.4628906 C 18.580642 8.4628906 18.765577 7.7934794 19.123047 6.4550781 C 19.439761 5.2597118 19.597656 4.2942004 19.597656 3.5585938 C 19.597656 1.7808703 18.784602 0.89257813 17.160156 0.89257812 L 16.394531 0.89257812 z M 16.195312 1.6582031 L 16.960938 1.6582031 C 18.186934 1.6582031 18.800781 2.3472945 18.800781 3.7265625 C 18.800781 4.4213027 18.642889 5.3671337 18.326172 6.5625 L 18.294922 6.6386719 L 17.267578 10.470703 C 17.165405 10.828289 16.971604 11.108164 16.685547 11.3125 C 16.409694 11.506617 16.118997 11.603516 15.8125 11.603516 C 15.219933 11.603516 14.923828 11.337914 14.923828 10.806641 C 14.923828 10.704467 14.93811 10.593311 14.96875 10.470703 L 15.613281 8.0644531 C 15.664351 7.8805665 15.60338 7.7890625 15.429688 7.7890625 L 14.433594 7.7890625 C 14.259912 7.7890625 14.146777 7.8805665 14.095703 8.0644531 L 13.453125 10.470703 C 13.361155 10.828292 13.17081 11.108164 12.884766 11.3125 C 12.608916 11.506617 12.312811 11.603516 11.996094 11.603516 C 11.403529 11.603516 11.107422 11.337914 11.107422 10.806641 C 11.107422 10.704467 11.123667 10.593311 11.154297 10.470703 L 12.195312 6.5625 C 12.60398 5.0197624 13.074203 3.8693228 13.605469 3.1132812 C 14.279767 2.1426864 15.143 1.6582031 16.195312 1.6582031 z "
       transform="matrix(0.26458333,0,0,0.26458333,61.616774,76.528594)"
       id="path4509" />
    <path
       style="font-style:italic;font-variant:normal;font-weight:normal;font-stretch:normal;font-size:4.68405533px;line-height:1.56832194px;font-family:Legothick;-inkscape-font-specification:'Legothick Italic';letter-spacing:0px;word-spacing:0px;fill:#000000;fill-opacity:1;stroke:none;stroke-width:0.20524667px;stroke-linecap:butt;stroke-linejoin:miter;stroke-opacity:1"
       d="M 41.746094 0.89257812 C 40.254463 0.89257812 39.050358 1.6318475 38.130859 3.1132812 C 37.630243 3.9306268 37.168883 5.1061541 36.75 6.6386719 C 36.402634 7.9566385 36.230469 8.9885482 36.230469 9.734375 C 36.230469 11.501879 37.041567 12.386719 38.666016 12.386719 L 40.199219 12.386719 C 40.914386 12.386719 41.517414 12.110299 42.007812 11.558594 C 42.457344 11.05797 42.681641 10.510543 42.681641 9.9179688 C 42.681641 9.5195158 42.559644 9.192923 42.314453 8.9375 C 42.069255 8.682082 41.706746 8.5546875 41.226562 8.5546875 C 41.941727 8.5546875 42.542802 8.2782677 43.033203 7.7265625 C 43.482735 7.2259364 43.708984 6.6804626 43.708984 6.0878906 C 43.708984 5.6894352 43.585034 5.3608867 43.339844 5.1054688 C 43.094646 4.8500458 42.73214 4.7226562 42.251953 4.7226562 C 42.96712 4.7226562 43.570148 4.4481896 44.060547 3.8964844 C 44.510081 3.3958608 44.734375 2.8484339 44.734375 2.2558594 C 44.734375 1.8574065 44.612378 1.5308111 44.367188 1.2753906 C 44.121987 1.0199702 43.759478 0.89257812 43.279297 0.89257812 L 41.746094 0.89257812 z M 41.546875 1.6582031 L 43.080078 1.6582031 C 43.662428 1.6582031 43.953125 1.9292127 43.953125 2.4707031 C 43.953125 2.8282918 43.811456 3.1657 43.525391 3.4824219 C 43.239321 3.7991412 42.880269 3.9570312 42.451172 3.9570312 L 41.701172 3.9570312 C 41.323141 3.9570312 41.052124 4.012622 40.888672 4.125 C 40.643471 4.2986869 40.424585 4.6916809 40.230469 5.3046875 L 40.214844 5.3359375 C 40.184204 5.42778 40.225513 5.4799037 40.337891 5.4902344 L 42.052734 5.4902344 C 42.635087 5.4902344 42.927734 5.7592909 42.927734 6.3007812 C 42.927734 6.6583699 42.784114 6.9957806 42.498047 7.3125 C 42.211979 7.6292219 41.854881 7.7890625 41.425781 7.7890625 L 39.740234 7.7890625 C 39.617601 7.7992672 39.5458 7.8494377 39.525391 7.9414062 L 39.509766 7.9726562 C 39.448462 8.2689586 39.417969 8.5094728 39.417969 8.6933594 C 39.417969 8.9794243 39.498657 9.162402 39.662109 9.2441406 C 39.764273 9.2952146 39.963481 9.3203125 40.259766 9.3203125 L 41.027344 9.3203125 C 41.609693 9.3203125 41.900391 9.5913221 41.900391 10.132812 C 41.900391 10.490401 41.756771 10.827814 41.470703 11.144531 C 41.184638 11.461253 40.82754 11.619141 40.398438 11.619141 L 38.865234 11.619141 C 37.639236 11.619141 37.027344 10.930049 37.027344 9.5507812 C 37.027344 8.8458213 37.190646 7.8749024 37.517578 6.6386719 C 37.946678 5.0652848 38.422309 3.9005753 38.943359 3.1445312 C 39.627875 2.1535038 40.494559 1.6582031 41.546875 1.6582031 z "
       transform="matrix(0.26458333,0,0,0.26458333,61.616774,76.528594)"
       id="path4583" />
    <path
       style="font-style:italic;font-variant:normal;font-weight:normal;font-stretch:normal;font-size:4.68405533px;line-height:1.56832194px;font-family:Legothick;-inkscape-font-specification:'Legothick Italic';letter-spacing:0px;word-spacing:0px;fill:#000000;fill-opacity:1;stroke:none;stroke-width:0.20524667px;stroke-linecap:butt;stroke-linejoin:miter;stroke-opacity:1"
       d="M 27.630859 0.90625 C 26.803312 0.90625 26.123062 1.2903767 25.591797 2.0566406 L 24.71875 3.3125 L 24.519531 2.0566406 C 24.386719 1.2903767 23.905678 0.90820312 23.078125 0.90820312 C 22.567292 0.90820312 22.077386 1.0714983 21.607422 1.3984375 C 21.117021 1.7560262 20.79042 2.224286 20.626953 2.8066406 L 18.572266 10.470703 C 18.521192 10.66482 18.496094 10.853205 18.496094 11.037109 C 18.496094 11.455997 18.639714 11.78259 18.925781 12.017578 C 19.211846 12.252564 19.563537 12.371094 19.982422 12.371094 C 20.50347 12.371094 20.989919 12.211253 21.439453 11.894531 C 21.929852 11.536943 22.256457 11.063275 22.419922 10.470703 L 22.527344 10.025391 C 22.772534 10.076465 23.027326 10.076465 23.292969 10.025391 L 23.169922 10.470703 C 23.118848 10.66482 23.09375 10.853205 23.09375 11.037109 C 23.09375 11.455997 23.237373 11.78259 23.523438 12.017578 C 23.809505 12.252564 24.161196 12.371094 24.580078 12.371094 C 25.101126 12.371094 25.587575 12.211253 26.037109 11.894531 C 26.527508 11.536943 26.848703 11.063275 27.001953 10.470703 L 29.054688 2.8066406 C 29.105762 2.622754 29.132812 2.4451839 29.132812 2.2714844 C 29.132812 1.8525968 28.989195 1.5205938 28.703125 1.2753906 C 28.41706 1.0301749 28.059959 0.90625 27.630859 0.90625 z M 22.863281 1.6582031 C 23.363897 1.6582031 23.65114 1.8878994 23.722656 2.3476562 L 24.166016 5.1054688 C 24.166016 5.1258782 24.182251 5.1367188 24.212891 5.1367188 C 24.25376 5.1470495 24.278858 5.1362089 24.289062 5.1054688 L 26.205078 2.3476562 C 26.53201 1.8878994 26.944696 1.6582031 27.445312 1.6582031 C 27.700728 1.6582031 27.910752 1.7354246 28.074219 1.8886719 C 28.247901 2.0317144 28.335938 2.2309152 28.335938 2.4863281 C 28.335938 2.5885014 28.319702 2.6942375 28.289062 2.8066406 L 26.236328 10.470703 C 26.14436 10.828289 25.954019 11.108164 25.667969 11.3125 C 25.392121 11.506617 25.101421 11.603516 24.794922 11.603516 C 24.19214 11.603516 23.890625 11.337914 23.890625 10.806641 C 23.890625 10.704467 23.906861 10.593311 23.9375 10.470703 L 24.427734 8.6777344 C 24.438065 8.6266604 24.432771 8.5996094 24.412109 8.5996094 C 24.38147 8.5892787 24.359839 8.6001192 24.349609 8.6308594 C 24.022678 9.0906162 23.609994 9.3203125 23.109375 9.3203125 C 22.598544 9.3203125 22.307844 9.0906162 22.236328 8.6308594 C 22.225997 8.5899901 22.204367 8.5791495 22.173828 8.5996094 C 22.153419 8.6200188 22.139136 8.6470698 22.128906 8.6777344 L 21.654297 10.470703 C 21.552124 10.828292 21.356372 11.108164 21.070312 11.3125 C 20.794462 11.506617 20.503765 11.603516 20.197266 11.603516 C 19.594484 11.603516 19.292969 11.337914 19.292969 10.806641 C 19.292969 10.704467 19.309204 10.593311 19.339844 10.470703 L 21.392578 2.8066406 C 21.494751 2.4592693 21.68855 2.1848026 21.974609 1.9804688 C 22.260674 1.7658924 22.556782 1.6582031 22.863281 1.6582031 z "
       transform="matrix(0.26458333,0,0,0.26458333,61.616774,76.528594)"
       id="path4579" />
    <path
       inkscape:connector-curvature="0"
       id="path4585"
       style="font-style:italic;font-variant:normal;font-weight:normal;font-stretch:normal;font-size:4.68405533px;line-height:1.56832194px;font-family:Legothick;-inkscape-font-specification:'Legothick Italic';letter-spacing:0px;word-spacing:0px;fill:#000000;fill-opacity:1;stroke:none;stroke-width:0.05430485px;stroke-linecap:butt;stroke-linejoin:miter;stroke-opacity:1"
       d="m 75.052407,79.071756 -0.182462,-0.78663 0.604155,-0.786629 q 0.137861,-0.182465 0.137861,-0.352766 0,-0.166247 -0.121642,-0.271672 -0.117588,-0.109479 -0.291942,-0.109479 -0.291941,0 -0.506841,0.279781 l -0.09731,0.125699 q 0.01216,-0.194631 -0.105423,-0.30411 -0.105423,-0.09732 -0.279777,-0.09732 -0.20679,0 -0.3852,0.129754 -0.198681,0.141918 -0.263557,0.37304 l -0.543335,2.027396 q -0.02027,0.07704 -0.02027,0.145972 0,0.166247 0.121643,0.263562 0.109477,0.09326 0.27572,0.09326 0.178409,0 0.336544,-0.09732 0.174353,-0.109478 0.263558,-0.304109 0.09731,0.405479 0.429801,0.405479 0.263558,0 0.47846,-0.231123 0.2149,-0.235177 0.150024,-0.502793 z m -0.823111,0.36493 -0.178409,-0.782574 q -0.0081,-0.02839 -0.02433,-0.02839 -0.01622,0.0041 -0.02432,0.0365 l -0.1703,0.636602 q -0.04055,0.141918 -0.15408,0.223014 -0.109477,0.07704 -0.23112,0.07704 -0.239229,0 -0.239229,-0.210849 0,-0.04055 0.01216,-0.08921 l 0.543334,-2.027395 q 0.04055,-0.141918 0.158135,-0.227068 0.105422,-0.07298 0.227065,-0.07298 0.239229,0 0.239229,0.21085 0,0.04055 -0.01622,0.0892 l -0.1703,0.636603 q -0.0081,0.03244 0.0081,0.0365 0.01622,0 0.0365,-0.02838 l 0.600101,-0.782575 q 0.129751,-0.166246 0.304105,-0.166246 0.105423,0 0.178408,0.06487 0.07298,0.06487 0.07298,0.162192 0,0.105425 -0.08109,0.214904 l -0.640648,0.831232 q -0.0365,0.0446 -0.02433,0.08921 l 0.194627,0.831231 q 0.0041,0.0365 0.0041,0.06893 0,0.150027 -0.133807,0.263562 -0.129751,0.109479 -0.275721,0.109479 -0.174354,0 -0.214901,-0.166247 z" />
    <path
       inkscape:connector-curvature="0"
       id="path4581"
       style="font-style:italic;font-variant:normal;font-weight:normal;font-stretch:normal;font-size:4.68405533px;line-height:1.56832194px;font-family:Legothick;-inkscape-font-specification:'Legothick Italic';letter-spacing:0px;word-spacing:0px;fill:#000000;fill-opacity:1;stroke:none;stroke-width:0.05430485px;stroke-linecap:butt;stroke-linejoin:miter;stroke-opacity:1"
       d="M 69.956556,79.602933 H 69.75382 q -0.29194,0 -0.44602,-0.125699 -0.133807,-0.113533 -0.133807,-0.279779 0,-0.158138 0.109477,-0.279781 0.113533,-0.125699 0.283832,-0.125699 0.137861,0 0.186518,0.101369 0.04866,0.101371 0.174353,0.101371 0.137862,0 0.194628,-0.02839 0.08109,-0.04055 0.141915,-0.174356 0.01216,-0.137863 -0.05677,-0.17841 -0.04055,-0.02432 -0.190573,-0.02432 -0.251394,-0.0041 -0.381145,-0.162192 -0.121643,-0.145972 -0.121643,-0.38115 0,-0.385205 0.263559,-0.717697 0.283831,-0.360877 0.68525,-0.360877 h 0.202736 q 0.291942,0 0.446021,0.125699 0.133806,0.109479 0.133806,0.27978 0,0.158137 -0.113532,0.283835 -0.109478,0.121644 -0.279776,0.121644 -0.133806,0 -0.190573,-0.101369 -0.05271,-0.101371 -0.182463,-0.101371 -0.125697,0 -0.182463,0.02839 -0.0811,0.04055 -0.141916,0.174356 -0.01216,0.137862 0.05677,0.178411 0.04055,0.02433 0.190573,0.02433 0.251393,0.0041 0.37709,0.158137 0.125696,0.150027 0.125696,0.385204 0,0.385206 -0.263557,0.717699 -0.283832,0.360876 -0.68525,0.360875 z m 0.973137,-1.638135 q 0.239229,-0.06082 0.389254,-0.247342 0.137861,-0.178411 0.137861,-0.38926 0,-0.239232 -0.174353,-0.389259 Q 71.083773,76.76458 70.718847,76.76458 H 70.51611 q -0.506842,0 -0.871768,0.441972 -0.340597,0.409534 -0.340597,0.887999 0,0.320328 0.186517,0.510903 -0.239229,0.06082 -0.3852,0.243289 -0.141916,0.182464 -0.141916,0.393314 0,0.235177 0.174354,0.389259 0.198683,0.174356 0.563609,0.174356 h 0.202736 q 0.498733,0 0.867713,-0.441971 0.344652,-0.409534 0.344652,-0.883944 0,-0.324384 -0.186517,-0.514959 z" />
    <path
       inkscape:connector-curvature="0"
       id="path4575"
       style="font-style:italic;font-variant:normal;font-weight:normal;font-stretch:normal;font-size:4.68405533px;line-height:1.56832194px;font-family:Legothick;-inkscape-font-specification:'Legothick Italic';letter-spacing:0px;word-spacing:0px;fill:#000000;fill-opacity:1;stroke:none;stroke-width:0.05430485px;stroke-linecap:butt;stroke-linejoin:miter;stroke-opacity:1"
       d="m 63.784236,78.512194 q -0.04866,0.01216 -0.06893,0.07298 l -0.190573,0.713643 q -0.04055,0.141918 -0.154079,0.223014 -0.109478,0.07704 -0.23112,0.07704 -0.235176,0 -0.235176,-0.21085 0,-0.04055 0.01216,-0.0892 l 0.186518,-0.705533 q 0.01216,-0.05271 -0.02432,-0.0811 -0.24734,-0.121644 -0.24734,-0.519013 0,-0.275725 0.121643,-0.721753 v 0 q 0.04055,-0.141917 0.158134,-0.227067 0.105424,-0.07298 0.227065,-0.07298 0.23923,0 0.23923,0.210849 0,0.04055 -0.01622,0.08921 v 0 q -0.09731,0.368986 -0.09731,0.523068 0,0.158138 0.113533,0.178411 0.109477,-0.02027 0.186517,-0.145972 0.09326,-0.154082 0.202737,-0.555507 h -0.0041 q 0.04055,-0.141918 0.15408,-0.227068 0.109478,-0.07298 0.23112,-0.07298 0.235174,0 0.235174,0.21085 0,0.04055 -0.01216,0.0892 h 0.0041 q -0.279777,1.042082 -0.790673,1.240766 z m -0.01622,-1.256984 q 0.01622,-0.07298 0.01622,-0.133809 0,-0.1703 -0.113532,-0.259506 -0.109478,-0.09326 -0.275722,-0.09326 -0.206791,0 -0.381145,0.125699 -0.198682,0.141918 -0.263557,0.377095 l -0.0081,0.03244 q -0.117587,0.437917 -0.117587,0.733917 0,0.441972 0.259502,0.616327 L 62.71376,79.29882 q -0.02027,0.07704 -0.02027,0.150027 0,0.166247 0.117588,0.263563 0.105423,0.0892 0.275722,0.0892 0.206791,0 0.381145,-0.125699 0.194627,-0.141917 0.259503,-0.377095 l 0.170298,-0.644712 q 0.587934,-0.29194 0.87582,-1.362404 l 0.0041,-0.02027 q 0.02027,-0.07704 0.02027,-0.145973 0,-0.1703 -0.113532,-0.26356 -0.113533,-0.09326 -0.283831,-0.09326 -0.198682,0 -0.373036,0.121644 -0.190573,0.133808 -0.259503,0.364931 z" />
    <path
       style="font-style:italic;font-variant:normal;font-weight:normal;font-stretch:normal;font-size:4.68405533px;line-height:1.56832194px;font-family:Legothick;-inkscape-font-specification:'Legothick Italic';letter-spacing:0px;word-spacing:0px;fill:#000000;fill-opacity:1;stroke:none;stroke-width:0.20524667px;stroke-linecap:butt;stroke-linejoin:miter;stroke-opacity:1"
       d="m 15.935547,4.0039062 c -0.459747,10e-8 -0.797168,0.3929965 -1.011719,1.1796876 -0.04089,0.1939903 0.03979,0.2963099 0.244141,0.3066406 h 0.767578 c 0.204344,-0.010205 0.331738,-0.1125243 0.382812,-0.3066406 0.05107,-0.1941241 0.07617,-0.3682372 0.07617,-0.5214844 0,-0.4393197 -0.152485,-0.6582031 -0.458984,-0.6582032 z"
       transform="matrix(0.26458333,0,0,0.26458333,61.616774,76.528594)"
       id="path4648" />
  </g>
  <g
     inkscape:groupmode="layer"
     id="layer3"
     inkscape:label="_Mask"
     style="display:none">
    <path
       inkscape:connector-curvature="0"
       id="path4504"
       d="m 11.436261,2.3420433 q 0.22015,0 0.332566,0.1171018 0.112417,0.1171028 0.112417,0.2997821 0,0.2716768 -0.206097,0.5011974 -0.224833,0.2529407 -0.552715,0.2529407 H 10.65403 q -0.7447602,0 -0.7447602,-0.8103475 0,-0.3419384 0.1592572,-0.9461855 Q 10.260572,1.0539196 10.490089,0.67919201 10.911651,-6.0910359e-7 11.595518,-6.0910359e-7 h 0.468403 q 0.220149,0 0.332566,0.11710279910359 0.112416,0.11710179 0.112416,0.29978104 0,0.27167684 -0.206097,0.5011974 -0.224833,0.25294077 -0.552715,0.25294077 0.22015,0 0.332566,0.1171028 0.112416,0.1171017 0.112416,0.299781 0,0.2716768 -0.206096,0.5011974 -0.224834,0.2529407 -0.552716,0.2529407 z"
       style="font-style:italic;font-variant:normal;font-weight:normal;font-stretch:normal;font-size:4.68405533px;line-height:1.56832194px;font-family:Legothick;-inkscape-font-specification:'Legothick Italic';letter-spacing:0px;word-spacing:0px;display:inline;fill:#000000;fill-opacity:1;stroke:none;stroke-width:0.06273288px;stroke-linecap:butt;stroke-linejoin:miter;stroke-opacity:1" />
    <path
       style="font-style:italic;font-variant:normal;font-weight:normal;font-stretch:normal;font-size:4.68405533px;line-height:1.56832194px;font-family:Legothick;-inkscape-font-specification:'Legothick Italic';letter-spacing:0px;word-spacing:0px;display:inline;fill:#000000;fill-opacity:1;stroke:none;stroke-width:0.06273288px;stroke-linecap:butt;stroke-linejoin:miter;stroke-opacity:1"
       d="m 1.3208894,0.56677424 q 0.01874,-0.0843106 0.01874,-0.15457505 0,-0.19673133 -0.1311521,-0.29978103 -0.1264692,-0.10773474 -0.31851385,-0.10773474 -0.23888537,0 -0.44029799,0.14520699 -0.22951743,0.16394311 -0.30446191,0.43561996 l -0.0094,0.0374703 Q -3.2461402e-5,1.1288621 -3.2461402e-5,1.4708004 q 0,0.5105655 0.299776951402,0.7119808 L 0.10301583,2.9275513 q -0.02341984,0.089001 -0.02341984,0.1733112 0,0.1920473 0.13583707,0.304466 0.12178517,0.1030497 0.31851383,0.1030497 0.23888536,0 0.44029798,-0.1452069 Q 1.1990783,3.1992281 1.2740228,2.9275513 L 1.4707515,2.1827812 Q 2.1499348,1.8455269 2.4825006,0.60892853 l 0.0047,-0.0234202 q 0.02342,-0.0890006 0.02342,-0.16862714 0,-0.19673134 -0.1311521,-0.30446507 -0.1311531,-0.10773474 -0.3278818,-0.10773474 -0.2295174,0 -0.43093,0.14052296 -0.2201495,0.15457505 -0.299778,0.42156786 z"
       id="path4496"
       inkscape:connector-curvature="0" />
    <path
       style="font-style:italic;font-variant:normal;font-weight:normal;font-stretch:normal;font-size:4.68405533px;line-height:1.56832194px;font-family:Legothick;-inkscape-font-specification:'Legothick Italic';letter-spacing:0px;word-spacing:0px;display:inline;fill:#000000;fill-opacity:1;stroke:none;stroke-width:0.06273288px;stroke-linecap:butt;stroke-linejoin:miter;stroke-opacity:1"
       d="M 4.0809526,-6.0910361e-7 H 3.8467512 q -1.0539058,0 -1.5082557,1.70032360910361 L 2.0106138,2.9275543 q -0.02342,0.089001 -0.02342,0.1686271 0,0.1967314 0.1311521,0.3044651 0.1311532,0.1077347 0.3231978,0.1077347 0.2295175,0 0.4262461,-0.1358389 0.2201495,-0.154575 0.3044619,-0.4168838 -0.01874,0.07494 -0.01874,0.1405229 0,0.1967314 0.135836,0.3091501 0.1217852,0.1030497 0.3138299,0.1030497 0.2388854,0 0.4449819,-0.1452069 0.2248335,-0.1639432 0.299778,-0.43562 L 4.5118787,2.3139391 v 0 q 0.0047,0 0.1686248,-0.6136161 0.145204,-0.5480378 0.145204,-0.88529207 0,-0.81503153910364 -0.7447589,-0.81503153910364 z"
       id="path4498"
       inkscape:connector-curvature="0" />
    <path
       style="font-style:italic;font-variant:normal;font-weight:normal;font-stretch:normal;font-size:4.68405533px;line-height:1.56832194px;font-family:Legothick;-inkscape-font-specification:'Legothick Italic';letter-spacing:0px;word-spacing:0px;display:inline;fill:#000000;fill-opacity:1;stroke:none;stroke-width:0.06273288px;stroke-linecap:butt;stroke-linejoin:miter;stroke-opacity:1"
       d="M 6.657899,0.35599081 6.3909098,0.74008542 6.3300202,0.35599081 q -0.06089,-0.35130739 -0.4402979,-0.35130739 -0.2342014,0 -0.449666,0.14989102 Q 5.2152229,0.31851756 5.1402784,0.58551037 L 4.5126197,2.9275543 q -0.02342,0.089001 -0.02342,0.1733112 0,0.1920473 0.1311531,0.299781 0.1311521,0.1077347 0.3231978,0.1077347 0.2388854,0 0.444982,-0.1452069 0.2248334,-0.1639432 0.2997769,-0.43562 l 0.03279,-0.1358389 q 0.1124162,0.02342 0.2342014,0 l -0.03747,0.1358389 q -0.02342,0.089001 -0.02342,0.1733112 0,0.1920473 0.1311521,0.299781 0.1311531,0.1077347 0.3231978,0.1077347 0.2388854,0 0.444983,-0.1452069 0.2248324,-0.1639432 0.295093,-0.43562 l 0.627659,-2.34204393 q 0.02342,-0.0843106 0.02342,-0.16394311 0,-0.19204731 -0.1311531,-0.30446507 -0.1311521,-0.11241877 -0.3278818,-0.11241877 -0.3794054,0 -0.6229747,0.35130739 z"
       id="path4500"
       inkscape:connector-curvature="0" />
    <path
       style="font-style:italic;font-variant:normal;font-weight:normal;font-stretch:normal;font-size:4.68405533px;line-height:1.56832194px;font-family:Legothick;-inkscape-font-specification:'Legothick Italic';letter-spacing:0px;word-spacing:0px;display:inline;fill:#000000;fill-opacity:1;stroke:none;stroke-width:0.06273288px;stroke-linecap:butt;stroke-linejoin:miter;stroke-opacity:1"
       d="m 9.5940499,1.3864898 q 0.2763571,-0.070261 0.4496661,-0.2857299 0.159257,-0.20609943 0.159257,-0.44967208 0,-0.27636088 -0.201413,-0.44967206 Q 9.7720427,-6.0910361e-7 9.3504806,-6.0910361e-7 H 9.1162792 q -0.585503,0 -1.0070651,0.51056546910361 -0.3934573,0.47309322 -0.3934573,1.02581494 0,0.3700436 0.2154645,0.5901951 -0.2763571,0.07026 -0.444982,0.2810459 -0.1639408,0.2107834 -0.1639408,0.4543561 0,0.2716768 0.2014126,0.449672 0.2295174,0.2014164 0.6510795,0.2014164 H 8.408992 q 0.5761351,0 1.0023812,-0.5105655 0.3981412,-0.4730932 0.3981412,-1.0211309 0,-0.3747276 -0.2154645,-0.5948791 z"
       id="path4502"
       inkscape:connector-curvature="0" />
    <path
       style="font-style:italic;font-variant:normal;font-weight:normal;font-stretch:normal;font-size:4.68405533px;line-height:1.56832194px;font-family:Legothick;-inkscape-font-specification:'Legothick Italic';letter-spacing:0px;word-spacing:0px;display:inline;fill:#000000;fill-opacity:1;stroke:none;stroke-width:0.06273288px;stroke-linecap:butt;stroke-linejoin:miter;stroke-opacity:1"
       d="m 14.356603,2.6652455 -0.21078,-0.9087132 0.697919,-0.90871314 q 0.159257,-0.21078344 0.159257,-0.40751478 0,-0.1920483 -0.140521,-0.31383413 Q 14.726641,-6.0910361e-7 14.525228,-6.0910361e-7 q -0.33725,0 -0.585503,0.32320219910361 L 13.827309,0.46840858 Q 13.841359,0.24357205 13.705524,0.11710219 13.58374,0.00468342 13.382326,0.00468342 q -0.238884,0 -0.444982,0.14989102 -0.229516,0.16394312 -0.304461,0.43093593 l -0.62766,2.34204393 q -0.02342,0.089001 -0.02342,0.1686271 0,0.1920474 0.140521,0.3044651 0.126468,0.1077347 0.318512,0.1077347 0.206098,0 0.388775,-0.1124187 0.201412,-0.1264699 0.304462,-0.3513064 0.112416,0.4684092 0.496505,0.4684092 0.304462,0 0.552716,-0.2669928 0.248253,-0.2716779 0.173309,-0.580827 z"
       id="path4524"
       inkscape:connector-curvature="0" />
  </g>
  <g
     inkscape:groupmode="layer"
     id="layer2"
     inkscape:label="_Cu"
     style="display:none">
    <path
       style="font-style:italic;font-variant:normal;font-weight:normal;font-stretch:normal;font-size:4.68405533px;line-height:1.56832194px;font-family:Legothick;-inkscape-font-specification:'Legothick Italic';letter-spacing:0px;word-spacing:0px;fill:#ffcc00;fill-opacity:1;stroke:none;stroke-width:0.06273288px;stroke-linecap:butt;stroke-linejoin:miter;stroke-opacity:1"
       d="m 1.3396294,2.0188411 q -0.05621,0.01405 -0.07963,0.084311 L 1.0398514,2.9275513 Q 0.9930117,3.0914944 0.86185864,3.185176 0.73538951,3.274177 0.59486947,3.274177 q -0.27167414,0 -0.27167414,-0.2435727 0,-0.04684 0.0140499,-0.1030497 L 0.55270976,2.1125228 Q 0.56675966,2.0516323 0.52460995,2.0188421 0.2388839,1.8783192 0.2388839,1.419279 q 0,-0.3185181 0.14052104,-0.83376763 v 0 q 0.0468397,-0.16394311 0.18267675,-0.26230878 0.12178517,-0.0843106 0.26230521,-0.0843106 0.2763581,0 0.2763581,0.24357265 0,0.0468403 -0.01874,0.1030497 v 0 Q 0.96958891,1.0117663 0.96958891,1.1897615 q 0,0.1826802 0.13115309,0.2061004 0.1264681,-0.02342 0.2154645,-0.1686272 0.1077323,-0.1779952 0.2342014,-0.64172033 h -0.0047 q 0.04684,-0.16394311 0.1779927,-0.26230878 0.1264682,-0.0843106 0.2669892,-0.0843106 0.2716732,0 0.2716732,0.24357265 0,0.0468403 -0.01405,0.1030497 h 0.0047 Q 1.9298153,1.7893276 1.3396284,2.0188481 Z"
       id="path4542"
       inkscape:connector-curvature="0" />
    <path
       style="font-style:italic;font-variant:normal;font-weight:normal;font-stretch:normal;font-size:4.68405533px;line-height:1.56832194px;font-family:Legothick;-inkscape-font-specification:'Legothick Italic';letter-spacing:0px;word-spacing:0px;fill:#ffcc00;fill-opacity:1;stroke:none;stroke-width:0.23710066px;stroke-linecap:butt;stroke-linejoin:miter;stroke-opacity:1"
       d="m 14.308594,0.88476562 c -1.215634,10e-9 -2.21324,0.56041098 -2.992188,1.68164058 C 10.702688,3.4397855 10.15959,4.7686136 9.6875,6.5507812 L 8.484375,11.064453 c -0.035402,0.141631 -0.052734,0.272603 -0.052734,0.390625 0,0.613727 0.3428131,0.919922 1.0273438,0.919922 0.3658708,0 0.7067302,-0.111683 1.0253902,-0.335938 0.330454,-0.236048 0.55002,-0.561524 0.65625,-0.974609 l 0.742187,-2.7792968 c 0.05901,-0.2124371 0.189986,-0.3183593 0.390626,-0.3183593 h 1.15039 c 0.200643,0 0.271902,0.1059222 0.212891,0.3183593 l -0.744141,2.7792968 c -0.0354,0.141631 -0.05273,0.272603 -0.05273,0.390625 0,0.613727 0.34086,0.919922 1.02539,0.919922 0.354067,0 0.691104,-0.111683 1.009766,-0.335938 0.330464,-0.236048 0.555806,-0.561524 0.673828,-0.974609 l 1.185547,-4.4257811 0.03516,-0.087891 c 0.365871,-1.3808851 0.548828,-2.4728278 0.548828,-3.2753906 0,-1.5933286 -0.708727,-2.39062498 -2.125,-2.39062498 z M 14.007812,3.59375 c 0.354069,0 0.531251,0.2542155 0.53125,0.7617188 0,0.1770355 -0.02888,0.3773153 -0.08789,0.6015624 -0.05901,0.2242545 -0.207312,0.3417235 -0.44336,0.3535157 H 13.123047 C 12.887005,5.2987044 12.792627,5.1812353 12.839844,4.9570312 13.087703,4.0482453 13.476724,3.59375 14.007812,3.59375 Z"
       transform="scale(0.26458333)"
       id="path4536"
       inkscape:connector-curvature="0" />
    <path
       style="font-style:italic;font-variant:normal;font-weight:normal;font-stretch:normal;font-size:4.68405533px;line-height:1.56832194px;font-family:Legothick;-inkscape-font-specification:'Legothick Italic';letter-spacing:0px;word-spacing:0px;fill:#ffcc00;fill-opacity:1;stroke:none;stroke-width:0.06273288px;stroke-linecap:butt;stroke-linejoin:miter;stroke-opacity:1"
       d="M 6.8546277,2.9275543 Q 6.8124677,3.0914974 6.6813188,3.185179 6.5548507,3.27418 6.4143297,3.27418 q -0.2763571,0 -0.2763571,-0.2435727 0,-0.04684 0.01405,-0.1030497 l 0.1498888,-0.548039 q 0.0047,-0.02342 -0.0047,-0.02342 -0.01405,-0.0047 -0.01874,0.0094 -0.149888,0.2107844 -0.3794054,0.2107844 -0.2342014,0 -0.2669892,-0.2107844 -0.0047,-0.01874 -0.01874,-0.0094 -0.0094,0.0094 -0.01405,0.02342 L 5.4540828,2.9275573 Q 5.4072428,3.0915004 5.27609,3.185182 5.1496209,3.274183 5.0090999,3.274183 q -0.2763571,0 -0.2763571,-0.2435727 0,-0.04684 0.01405,-0.1030497 l 0.627684,-2.34205023 q 0.04684,-0.15925908 0.1779928,-0.25294072 0.1311521,-0.0983707 0.2716731,-0.0983707 0.2295174,0 0.2623052,0.21078444 L 6.222285,1.2881192 q 0,0.0094 0.01405,0.0094 0.01874,0.0047 0.02342,-0.0094 L 6.845258,0.44498342 q 0.149889,-0.21078444 0.3794064,-0.21078444 0.1171002,0 0.1920447,0.0702605 0.079629,0.0655805 0.079629,0.18267924 0,0.0468403 -0.01405,0.0983707 z"
       id="path4532"
       inkscape:connector-curvature="0" />
    <path
       style="font-style:italic;font-variant:normal;font-weight:normal;font-stretch:normal;font-size:4.68405533px;line-height:1.56832194px;font-family:Legothick;-inkscape-font-specification:'Legothick Italic';letter-spacing:0px;word-spacing:0px;fill:#ffcc00;fill-opacity:1;stroke:none;stroke-width:0.06273288px;stroke-linecap:butt;stroke-linejoin:miter;stroke-opacity:1"
       d="M 8.4698836,3.2788607 H 8.2356832 q -0.3372497,0 -0.5152425,-0.145207 -0.1545729,-0.1311539 -0.1545729,-0.3232012 0,-0.1826802 0.1264681,-0.3232022 0.1311531,-0.145207 0.3278818,-0.145207 0.1592569,0 0.2154655,0.1171018 0.05621,0.1171028 0.2014126,0.1171028 0.1592569,0 0.2248335,-0.03279 0.093679,-0.04684 0.1639409,-0.2014154 0.01405,-0.1592591 -0.06558,-0.2060994 -0.04684,-0.0281 -0.2201495,-0.0281 -0.290409,-0.0047 -0.440298,-0.1873632 -0.140521,-0.1686272 -0.140521,-0.440304 0,-0.4449881 0.3044619,-0.82908368 0.3278822,-0.41688424 0.7916,-0.41688424 H 9.289585 q 0.3372497,0 0.5152425,0.14520699 0.1545729,0.12646986 0.1545729,0.3232022 0,0.18267924 -0.1311521,0.32788523 -0.1264691,0.140523 -0.3231978,0.140523 -0.1545729,0 -0.2201495,-0.1171018 -0.06089,-0.11710284 -0.2107805,-0.11710284 -0.145205,0 -0.2107816,0.0327902 -0.093679,0.0468403 -0.1639409,0.20141544 -0.01405,0.159259 0.06558,0.2061004 0.04684,0.0281 0.2201495,0.0281 0.290409,0.0047 0.435614,0.1826793 0.145204,0.1733112 0.145204,0.444988 0,0.444989 -0.3044609,0.8290837 -0.3278822,0.4168839 -0.791601,0.4168829 z"
       id="path4528"
       inkscape:connector-curvature="0" />
    <path
       inkscape:connector-curvature="0"
       id="path4511"
       d="m 11.183324,3.2788607 q 0.19673,0 0.327882,-0.145207 0.131153,-0.145206 0.131153,-0.3091491 0,-0.2482567 -0.266989,-0.2482567 h -0.234202 q -0.135837,0 -0.182676,-0.02342 -0.07494,-0.03747 -0.07494,-0.1686272 0,-0.084311 0.0281,-0.2201515 l 0.0047,-0.0094 q 0.0094,-0.04216 0.06558,-0.04684 h 0.515243 q 0.196729,0 0.327882,-0.145207 0.131153,-0.145206 0.131153,-0.3091491 0,-0.2482567 -0.26699,-0.2482567 h -0.524611 q -0.05152,-0.0047 -0.03747,-0.04684 l 0.0047,-0.0094 q 0.089,-0.2810449 0.201413,-0.36067449 0.07494,-0.0515203 0.248253,-0.0515203 h 0.229518 q 0.196728,0 0.327882,-0.14520599 0.131152,-0.14520698 0.131152,-0.3091501 0,-0.24825669 -0.26699,-0.24825669 h -0.468401 q -0.482455,0 -0.796285,0.45435609 -0.238885,0.34662338 -0.435614,1.06797218 -0.149889,0.5667749 -0.149889,0.8899772 0,0.6323513 0.562083,0.6323513 z"
       style="font-style:italic;font-variant:normal;font-weight:normal;font-stretch:normal;font-size:4.68405533px;line-height:1.56832194px;font-family:Legothick;-inkscape-font-specification:'Legothick Italic';letter-spacing:0px;word-spacing:0px;fill:#ffcc00;fill-opacity:1;stroke:none;stroke-width:0.06273288px;stroke-linecap:butt;stroke-linejoin:miter;stroke-opacity:1" />
    <path
       style="font-style:italic;font-variant:normal;font-weight:normal;font-stretch:normal;font-size:4.68405533px;line-height:1.56832194px;font-family:Legothick;-inkscape-font-specification:'Legothick Italic';letter-spacing:0px;word-spacing:0px;fill:#ffcc00;fill-opacity:1;stroke:none;stroke-width:0.06273288px;stroke-linecap:butt;stroke-linejoin:miter;stroke-opacity:1"
       d="M 13.405747,3.0868134 13.199649,2.1827842 q -0.0094,-0.03279 -0.0281,-0.03279 -0.01874,0.0047 -0.0281,0.04216 l -0.19673,0.735402 q -0.04684,0.1639431 -0.177993,0.2576247 -0.126468,0.089001 -0.266989,0.089001 -0.276357,0 -0.276357,-0.2435727 0,-0.04684 0.01405,-0.1030497 l 0.62766,-2.34204413 q 0.04684,-0.16394311 0.182677,-0.26230878 0.121784,-0.0843106 0.262305,-0.0843106 0.276358,0 0.276358,0.24357265 0,0.0468403 -0.01874,0.1030497 L 13.37296,1.3209204 q -0.0094,0.03747 0.0094,0.04216 0.01874,0 0.04216,-0.03279 l 0.693235,-0.90402911 q 0.149889,-0.19204731 0.351302,-0.19204731 0.121785,0 0.206097,0.0749405 0.08431,0.0749405 0.08431,0.18736328 0,0.12178683 -0.09368,0.24825669 L 13.925708,1.705012 q -0.04216,0.05152 -0.0281,0.1030507 l 0.224833,0.9602375 q 0.0047,0.04216 0.0047,0.079631 0,0.1733111 -0.154573,0.304466 -0.149888,0.1264699 -0.318513,0.1264699 -0.201413,0 -0.248253,-0.1920473 z"
       id="path4506"
       inkscape:connector-curvature="0" />
  </g>
</svg>
