<?xml version="1.0" encoding="UTF-8" standalone="no"?>
<!-- Created with Inkscape (http://www.inkscape.org/) -->

<svg
   xmlns:dc="http://purl.org/dc/elements/1.1/"
   xmlns:cc="http://creativecommons.org/ns#"
   xmlns:rdf="http://www.w3.org/1999/02/22-rdf-syntax-ns#"
   xmlns:svg="http://www.w3.org/2000/svg"
   xmlns="http://www.w3.org/2000/svg"
   xmlns:sodipodi="http://sodipodi.sourceforge.net/DTD/sodipodi-0.dtd"
   xmlns:inkscape="http://www.inkscape.org/namespaces/inkscape"
   width="15.002999mm"
   height="3.5130653mm"
   viewBox="0 0 15.002999 3.5130653"
   version="1.1"
   id="svg8"
   inkscape:version="0.92.0 r15299"
   sodipodi:docname="logo.svg">
  <defs
     id="defs2" />
  <sodipodi:namedview
     id="base"
     pagecolor="#ffffff"
     bordercolor="#666666"
     borderopacity="1.0"
     inkscape:pageopacity="0.0"
     inkscape:pageshadow="2"
     inkscape:zoom="25.319534"
     inkscape:cx="31.338458"
     inkscape:cy="6.5192665"
     inkscape:document-units="mm"
     inkscape:current-layer="g4573"
     showgrid="false"
     fit-margin-top="0"
     fit-margin-left="0"
     fit-margin-right="0"
     fit-margin-bottom="0"
     inkscape:window-width="1600"
     inkscape:window-height="1136"
     inkscape:window-x="0"
     inkscape:window-y="27"
     inkscape:window-maximized="1" />
  <metadata
     id="metadata5">
    <rdf:RDF>
      <cc:Work
         rdf:about="">
        <dc:format>image/svg+xml</dc:format>
        <dc:type
           rdf:resource="http://purl.org/dc/dcmitype/StillImage" />
        <dc:title></dc:title>
      </cc:Work>
    </rdf:RDF>
  </metadata>
  <g
     inkscape:label="original_Legothick"
     inkscape:groupmode="layer"
     id="layer1"
     transform="translate(-61.616774,-76.528594)"
     style="display:none">
    <text
       xml:space="preserve"
       style="font-style:normal;font-variant:normal;font-weight:normal;font-stretch:normal;font-size:2.50931525px;line-height:1.56832194px;font-family:Legothick;-inkscape-font-specification:Legothick;letter-spacing:0px;word-spacing:0px;fill:#000000;fill-opacity:1;stroke:none;stroke-width:0.06273288px;stroke-linecap:butt;stroke-linejoin:miter;stroke-opacity:1"
       x="61.167526"
       y="80.041115"
       id="text4487"
       transform="scale(0.99999316,1.0000068)"><tspan
         sodipodi:role="line"
         id="tspan4485"
         x="61.167526"
         y="80.041115"
         style="font-style:italic;font-variant:normal;font-weight:normal;font-stretch:normal;font-size:4.68405533px;font-family:Legothick;-inkscape-font-specification:'Legothick Italic';stroke-width:0.06273288px">YAMSEK</tspan></text>
  </g>
  <g
     inkscape:label="Mask"
     id="g4564"
     inkscape:groupmode="layer">
    <path
       id="path4562"
       d="m 11.893489,0.28932286 c -0.173516,0 -0.326266,0.0879511 -0.45745,0.21264239 -0.01821,-0.0281005 -0.02919,-0.061288 -0.05405,-0.0844316 C 11.2898,0.3324343 11.16497,0.29423682 11.037556,0.29423682 c -0.150413,0 -0.296456,0.0488521 -0.422157,0.14027251 -0.139395,0.0998991 -0.238972,0.24116338 -0.285012,0.40518204 a 0.15234879,0.15234879 0 0 0 0,0.001787 L 9.8608754,2.5939909 c -0.014022,0.053281 -0.023678,0.1079482 -0.023678,0.1652895 0,0.1342522 0.061403,0.2641799 0.1639486,0.3462137 0.09224,0.076618 0.211254,0.1130223 0.332366,0.1130223 0.129138,0 0.256238,-0.03459 0.369891,-0.1045343 a 0.15234879,0.15234879 0 0 0 0.0018,-0.00179 c 0.05107,-0.032068 0.07478,-0.090214 0.116149,-0.1331248 0.02316,0.035752 0.02997,0.085884 0.06076,0.114809 0.09056,0.085092 0.2148,0.1282108 0.3413,0.1282108 0.196044,0 0.37975,-0.092267 0.524905,-0.2483804 a 0.15234879,0.15234879 0 0 0 0.0018,0 c 0.147671,-0.1616598 0.213789,-0.369323 0.165682,-0.570469 l -0.14206,-0.6111234 0.479339,-0.6231852 a 0.15234879,0.15234879 0 0 0 0,-0.00179 c 0.09327,-0.1234438 0.148761,-0.25667666 0.148761,-0.39490728 0,-0.130861 -0.05571,-0.25937961 -0.153675,-0.34621398 -3.89e-4,-3.6221e-4 -0.0014,3.6049e-4 -0.0018,0 -0.09373,-0.0867229 -0.21946,-0.13669608 -0.352886,-0.13669608 z m -4.47e-4,0.15278087 c 0.100482,0 0.184633,0.031612 0.252401,0.0947063 0.0701,0.0607579 0.104981,0.1387216 0.104981,0.23453204 0,0.0981468 -0.03983,0.19995792 -0.119277,0.30511503 l -0.522224,0.6799195 0.157695,0.6799196 c 0.03739,0.1542308 -0.0057,0.2991304 -0.129551,0.4346661 -0.123851,0.1331994 -0.261778,0.2001341 -0.41367,0.2001341 -0.191619,0 -0.315596,-0.1169982 -0.371678,-0.3506813 -0.05141,0.1121684 -0.127349,0.1995822 -0.22783,0.2626758 -0.09114,0.056087 -0.188001,0.084431 -0.290821,0.084431 -0.09581,0 -0.175459,-0.027111 -0.238552,-0.080857 -0.07011,-0.056084 -0.1049814,-0.1320208 -0.1049814,-0.2278313 0,-0.039727 0.00571,-0.081577 0.017419,-0.1259771 l 0.469957,-1.75295947 c 0.03739,-0.13319882 0.113329,-0.24030135 0.227832,-0.32209068 0.10282,-0.0747791 0.213635,-0.11257538 0.332811,-0.11257538 0.100484,0 0.181371,0.0283447 0.242127,0.0844316 0.06777,0.0630943 0.09814,0.15050735 0.09113,0.2626759 l 0.08399,-0.10855478 c 0.12385,-0.1612417 0.269991,-0.2416797 0.43824,-0.2416797 z"
       style="font-style:italic;font-variant:normal;font-weight:normal;font-stretch:normal;font-size:4.68405533px;line-height:1.56832194px;font-family:Legothick;-inkscape-font-specification:'Legothick Italic';letter-spacing:0px;word-spacing:0px;display:inline;fill:#b3b3b3;fill-opacity:1;stroke:none;stroke-width:0.04694496px;stroke-linecap:butt;stroke-linejoin:miter;stroke-opacity:1"
       inkscape:connector-curvature="0" />
  </g>
  <g
     inkscape:groupmode="layer"
     id="layer4"
     inkscape:label="Cu">
    <path
       style="font-style:italic;font-variant:normal;font-weight:normal;font-stretch:normal;font-size:4.68405533px;line-height:1.56832194px;font-family:Legothick;-inkscape-font-specification:'Legothick Italic';letter-spacing:0px;word-spacing:0px;display:inline;fill:#ffcc00;fill-opacity:1;stroke:none;stroke-width:0.04694496px;stroke-linecap:butt;stroke-linejoin:miter;stroke-opacity:1"
       d="m 11.893489,0.28932286 c -0.173516,0 -0.326266,0.0879511 -0.45745,0.21264239 -0.01821,-0.0281005 -0.02919,-0.061288 -0.05405,-0.0844316 C 11.2898,0.3324343 11.16497,0.29423682 11.037556,0.29423682 c -0.150413,0 -0.296456,0.0488521 -0.422157,0.14027251 -0.139395,0.0998991 -0.238972,0.24116338 -0.285012,0.40518204 a 0.15234879,0.15234879 0 0 0 0,0.001787 L 9.8608754,2.5939909 c -0.014022,0.053281 -0.023678,0.1079482 -0.023678,0.1652895 0,0.1342522 0.061403,0.2641799 0.1639486,0.3462137 0.09224,0.076618 0.211254,0.1130223 0.332366,0.1130223 0.129138,0 0.256238,-0.03459 0.369891,-0.1045343 a 0.15234879,0.15234879 0 0 0 0.0018,-0.00179 c 0.05107,-0.032068 0.07478,-0.090214 0.116149,-0.1331248 0.02316,0.035752 0.02997,0.085884 0.06076,0.114809 0.09056,0.085092 0.2148,0.1282108 0.3413,0.1282108 0.196044,0 0.37975,-0.092267 0.524905,-0.2483804 a 0.15234879,0.15234879 0 0 0 0.0018,0 c 0.147671,-0.1616598 0.213789,-0.369323 0.165682,-0.570469 l -0.14206,-0.6111234 0.479339,-0.6231852 a 0.15234879,0.15234879 0 0 0 0,-0.00179 c 0.09327,-0.1234438 0.148761,-0.25667666 0.148761,-0.39490728 0,-0.130861 -0.05571,-0.25937961 -0.153675,-0.34621398 -3.89e-4,-3.6221e-4 -0.0014,3.6049e-4 -0.0018,0 -0.09373,-0.0867229 -0.21946,-0.13669608 -0.352886,-0.13669608 z m -4.47e-4,0.15278087 c 0.100482,0 0.184633,0.031612 0.252401,0.0947063 0.0701,0.0607579 0.104981,0.1387216 0.104981,0.23453204 0,0.0981468 -0.03983,0.19995792 -0.119277,0.30511503 l -0.522224,0.6799195 0.157695,0.6799196 c 0.03739,0.1542308 -0.0057,0.2991304 -0.129551,0.4346661 -0.123851,0.1331994 -0.261778,0.2001341 -0.41367,0.2001341 -0.191619,0 -0.315596,-0.1169982 -0.371678,-0.3506813 -0.05141,0.1121684 -0.127349,0.1995822 -0.22783,0.2626758 -0.09114,0.056087 -0.188001,0.084431 -0.290821,0.084431 -0.09581,0 -0.175459,-0.027111 -0.238552,-0.080857 -0.07011,-0.056084 -0.1049814,-0.1320208 -0.1049814,-0.2278313 0,-0.039727 0.00571,-0.081577 0.017419,-0.1259771 l 0.469957,-1.75295947 c 0.03739,-0.13319882 0.113329,-0.24030135 0.227832,-0.32209068 0.10282,-0.0747791 0.213635,-0.11257538 0.332811,-0.11257538 0.100484,0 0.181371,0.0283447 0.242127,0.0844316 0.06777,0.0630943 0.09814,0.15050735 0.09113,0.2626759 l 0.08399,-0.10855478 c 0.12385,-0.1612417 0.269991,-0.2416797 0.43824,-0.2416797 z"
       id="path4545"
       inkscape:connector-curvature="0" />
  </g>
  <g
     style="display:inline"
     transform="translate(-61.616774,-76.528594)"
     id="g4573"
     inkscape:groupmode="layer"
     inkscape:label="SilkS">
    <path
       style="font-style:italic;font-variant:normal;font-weight:normal;font-stretch:normal;font-size:4.68405533px;line-height:1.56832194px;font-family:Legothick;-inkscape-font-specification:'Legothick Italic';letter-spacing:0px;word-spacing:0px;fill:#00ffff;fill-opacity:1;stroke:none;stroke-width:0.13475104px;stroke-linecap:butt;stroke-linejoin:miter;stroke-opacity:1"
       d="M 11.724609 1.1542969 C 11.167237 1.1542969 10.628904 1.3317559 10.167969 1.6640625 C 9.6452725 2.0382043 9.2777764 2.5679943 9.1074219 3.1855469 A 0.52993293 0.52993293 0 0 0 9.1054688 3.1933594 L 9.0800781 3.2949219 C 8.8162342 4.2775226 8.6777345 5.1148515 8.6777344 5.8300781 C 8.6777344 6.7154369 8.9797359 7.4217322 9.4824219 7.9394531 L 8.9863281 9.8164062 C 8.9308191 10.027417 8.9042969 10.237304 8.9042969 10.441406 C 8.9042969 10.925238 9.1061748 11.399755 9.4746094 11.707031 L 9.4765625 11.707031 C 9.8134304 11.991387 10.254387 12.123047 10.716797 12.123047 C 11.275699 12.123047 11.813471 11.942936 12.273438 11.611328 A 0.52993293 0.52993293 0 0 0 12.275391 11.609375 C 12.78863 11.235135 13.152059 10.708806 13.322266 10.091797 A 0.52993293 0.52993293 0 0 0 13.322266 10.085938 L 13.832031 8.1582031 C 14.068745 8.0196299 14.298117 7.8671117 14.509766 7.6796875 L 13.832031 10.203125 A 0.52993293 0.52993293 0 0 0 13.816406 10.294922 C 13.815812 10.301822 13.816607 10.314302 13.816406 10.326172 C 13.789936 10.453586 13.763672 10.581566 13.763672 10.710938 C 13.763672 11.118218 13.921739 11.540852 14.25 11.810547 C 14.548751 12.055991 14.929255 12.166016 15.306641 12.166016 C 15.750355 12.166016 16.180191 12.024705 16.546875 11.771484 A 0.52993293 0.52993293 0 0 0 16.550781 11.769531 C 16.594331 11.738951 16.611401 11.685621 16.652344 11.652344 C 16.695094 11.700634 16.718024 11.765204 16.767578 11.806641 C 17.047102 12.04228 17.417962 12.166016 17.802734 12.166016 C 18.26202 12.166016 18.704363 12.016074 19.082031 11.75 A 0.52993293 0.52993293 0 0 0 19.089844 11.744141 C 19.26703 11.614941 19.326863 11.385294 19.460938 11.212891 C 19.554103 11.394786 19.665443 11.568792 19.824219 11.699219 C 20.169535 11.982893 20.613053 12.123047 21.074219 12.123047 C 21.633121 12.123047 22.171545 11.944349 22.638672 11.615234 A 0.52993293 0.52993293 0 0 0 22.646484 11.609375 C 22.920813 11.409338 23.144233 11.160409 23.326172 10.882812 C 23.409892 11.197521 23.548425 11.493525 23.798828 11.699219 C 24.144146 11.982896 24.587665 12.123047 25.048828 12.123047 C 25.607733 12.123047 26.146156 11.944351 26.613281 11.615234 A 0.52993293 0.52993293 0 0 0 26.621094 11.609375 C 26.810429 11.471313 26.954432 11.292042 27.099609 11.115234 C 27.199279 11.29147 27.302234 11.466712 27.457031 11.603516 A 0.52993293 0.52993293 0 0 0 27.458984 11.605469 C 27.917 12.007433 28.536409 12.177733 29.230469 12.177734 L 29.736328 12.177734 C 30.730718 12.177734 31.632858 11.705065 32.324219 10.876953 C 32.368969 10.823743 32.385869 10.761357 32.427734 10.707031 C 32.513394 11.028111 32.644841 11.321756 32.861328 11.558594 C 33.25487 11.989128 33.84001 12.177733 34.476562 12.177734 L 35.484375 12.177734 C 36.105761 12.177734 36.686066 11.903583 37.099609 11.439453 C 37.47031 11.026634 37.681641 10.517396 37.681641 9.9882812 C 37.681641 9.6956333 37.537843 9.4191353 37.371094 9.1660156 C 37.499485 9.0713526 37.667121 9.047303 37.775391 8.9257812 L 37.777344 8.9238281 C 38.147651 8.5105262 38.355469 8.0011135 38.355469 7.4746094 C 38.355469 7.1770988 38.210145 6.902058 38.042969 6.6503906 C 38.170832 6.5559636 38.337438 6.5312302 38.445312 6.4101562 L 38.447266 6.4082031 C 38.816388 5.9962018 39.033203 5.4868619 39.033203 4.953125 C 39.033203 4.5761523 38.900882 4.1931216 38.636719 3.9179688 C 38.342405 3.6117868 37.922496 3.4941406 37.507812 3.4941406 L 36.5 3.4941406 C 35.509401 3.4941406 34.679509 4.0296554 34.023438 4.8320312 C 33.919942 4.5404929 33.769052 4.2684464 33.53125 4.0625 L 33.529297 4.0625 C 33.069677 3.6598426 32.450912 3.4941406 31.759766 3.4941406 L 31.253906 3.4941406 C 30.479034 3.4941406 29.795666 3.8454345 29.191406 4.3554688 L 29.427734 3.46875 C 29.483174 3.2691412 29.513672 3.0658066 29.513672 2.8632812 C 29.513672 2.3803964 29.319521 1.9086463 28.958984 1.5996094 C 28.612327 1.3024357 28.157785 1.1542969 27.685547 1.1542969 C 26.806351 1.1542969 26.02082 1.6069095 25.488281 2.375 L 25.439453 2.4453125 C 25.348229 2.0883419 25.210244 1.7414016 24.929688 1.5175781 C 24.606036 1.2593788 24.1896 1.1542968 23.75 1.1542969 C 23.195446 1.1542969 22.655879 1.3378897 22.175781 1.671875 A 0.52993293 0.52993293 0 0 0 22.166016 1.6796875 C 21.654047 2.0530045 21.292003 2.5747091 21.121094 3.1835938 A 0.52993293 0.52993293 0 0 0 21.119141 3.1894531 L 20.734375 4.625 C 20.65142 4.4443015 20.578858 4.2569287 20.445312 4.1113281 C 20.050594 3.6809191 19.464909 3.4941406 18.830078 3.4941406 L 18.326172 3.4941406 C 17.624028 3.4941406 17.001419 3.7920432 16.451172 4.2265625 C 16.535642 3.9693957 16.66556 3.806962 16.740234 3.5292969 A 0.52993293 0.52993293 0 0 0 16.748047 3.5 L 16.761719 3.4335938 L 16.753906 3.4609375 C 16.807786 3.2560904 16.837891 3.0521433 16.837891 2.8496094 C 16.837891 2.3607791 16.643044 1.8817227 16.273438 1.578125 C 15.925509 1.292338 15.477409 1.1542966 15.009766 1.1542969 C 14.468048 1.1542969 13.944986 1.3298012 13.488281 1.6484375 A 0.52993293 0.52993293 0 0 0 13.486328 1.6484375 C 13.380944 1.7224599 13.309407 1.8290986 13.216797 1.9160156 C 13.13725 1.7979113 13.071361 1.6697262 12.958984 1.5800781 C 12.621036 1.2959205 12.182108 1.1542966 11.724609 1.1542969 z M 11.724609 1.6835938 C 12.086723 1.6835937 12.386537 1.7851442 12.625 1.9882812 C 12.872307 2.1825893 12.996094 2.4649895 12.996094 2.8359375 C 12.996094 2.9684326 12.978685 3.1144706 12.943359 3.2734375 C 13.093502 2.7700069 13.375913 2.3734908 13.791016 2.0820312 C 14.170793 1.8170662 14.576997 1.6835938 15.009766 1.6835938 C 15.380699 1.6835937 15.690193 1.7851442 15.9375 1.9882812 C 16.184807 2.1914183 16.308594 2.4786613 16.308594 2.8496094 C 16.308594 2.9997549 16.286332 3.1583609 16.242188 3.3261719 L 16.228516 3.3925781 C 15.601444 5.7242569 14.647822 7.207847 13.367188 7.84375 L 12.810547 9.9511719 C 12.669235 10.463436 12.386828 10.872518 11.962891 11.181641 C 11.583114 11.455437 11.167226 11.59375 10.716797 11.59375 C 10.345839 11.59375 10.046025 11.497027 9.8164062 11.302734 C 9.5602777 11.090763 9.4335938 10.803525 9.4335938 10.441406 C 9.4335938 10.282429 9.453902 10.118983 9.4980469 9.9511719 L 10.054688 7.84375 C 9.4894415 7.463973 9.2070312 6.7927792 9.2070312 5.8300781 C 9.2070312 5.185331 9.3356684 4.3855077 9.5917969 3.4316406 L 9.6191406 3.3261719 C 9.7604496 2.8139123 10.045747 2.402875 10.478516 2.09375 C 10.858293 1.8199535 11.274178 1.6835938 11.724609 1.6835938 z M 23.75 1.6835938 C 24.465397 1.6835938 24.881272 2.015323 24.996094 2.6777344 L 25.167969 3.7636719 L 25.923828 2.6777344 C 26.383094 2.0153268 26.970158 1.6835938 27.685547 1.6835938 C 28.056492 1.6835938 28.365987 1.7899594 28.613281 2.0019531 C 28.860576 2.2139241 28.984375 2.5011649 28.984375 2.8632812 C 28.984375 3.0134532 28.962114 3.1672049 28.917969 3.3261719 L 27.142578 9.9511719 C 27.010098 10.463434 26.732528 10.872513 26.308594 11.181641 C 25.919987 11.455437 25.499261 11.59375 25.048828 11.59375 C 24.686719 11.59375 24.38206 11.492212 24.134766 11.289062 C 23.887471 11.085922 23.763672 10.803523 23.763672 10.441406 C 23.763672 10.282436 23.785933 10.118983 23.830078 9.9511719 L 23.935547 9.5664062 C 23.705907 9.6105511 23.487347 9.6105511 23.275391 9.5664062 L 23.181641 9.9511719 C 23.040332 10.463434 22.757919 10.872513 22.333984 11.181641 C 21.945373 11.455437 21.524648 11.59375 21.074219 11.59375 C 20.712106 11.59375 20.407451 11.492212 20.160156 11.289062 C 19.912862 11.085922 19.789063 10.803523 19.789062 10.441406 C 19.789062 10.282436 19.811324 10.118983 19.855469 9.9511719 L 21.630859 3.3261719 C 21.772168 2.8227426 22.054577 2.4165494 22.478516 2.1074219 C 22.884785 1.8247964 23.3084 1.6835938 23.75 1.6835938 z M 18.326172 4.0234375 L 18.830078 4.0234375 C 19.370116 4.0234375 19.779198 4.1683531 20.054688 4.46875 C 20.330195 4.769128 20.470703 5.21932 20.470703 5.8085938 C 20.470703 6.2969464 20.366606 6.9301903 20.158203 7.7167969 C 20.158392 7.7190646 20.158392 7.7224361 20.158203 7.7246094 C 20.040849 8.1640097 19.949484 8.4923174 19.888672 8.7128906 C 19.749612 9.2125517 19.572556 9.820622 19.441406 10.367188 C 19.332023 10.763704 19.105445 11.077162 18.777344 11.316406 C 18.476652 11.528249 18.152454 11.636719 17.802734 11.636719 C 17.520861 11.636719 17.288877 11.553915 17.107422 11.400391 C 16.907107 11.232874 16.800781 10.999655 16.800781 10.710938 C 16.800781 10.704134 16.800683 10.697453 16.800781 10.691406 C 16.671831 10.948924 16.487265 11.166615 16.246094 11.335938 C 15.958759 11.534362 15.642792 11.636719 15.306641 11.636719 C 15.024797 11.636719 14.780809 11.560491 14.585938 11.400391 C 14.389289 11.238827 14.292969 11.000864 14.292969 10.710938 C 14.292969 10.593054 14.309734 10.475454 14.34375 10.345703 C 14.343561 10.343435 14.343561 10.342017 14.34375 10.339844 L 15.052734 7.6992188 C 15.378972 6.4783142 15.816721 5.5619264 16.361328 4.9472656 C 16.905928 4.3326124 17.561543 4.0234375 18.326172 4.0234375 z M 31.253906 4.0234375 L 31.759766 4.0234375 C 32.369759 4.0234375 32.844091 4.1646981 33.181641 4.4609375 C 33.477751 4.7157344 33.626953 5.0536036 33.626953 5.4589844 C 33.626953 5.8165352 33.510011 6.154001 33.277344 6.4550781 C 33.035518 6.7557244 32.72423 6.9535484 32.345703 7.0605469 C 32.63472 7.3791422 32.78125 7.7962415 32.78125 8.3164062 C 32.78125 9.110708 32.492944 9.8538892 31.917969 10.537109 C 31.302046 11.274862 30.572987 11.648437 29.736328 11.648438 L 29.230469 11.648438 C 28.620476 11.648438 28.146143 11.503271 27.808594 11.207031 C 27.512634 10.945473 27.361328 10.603917 27.361328 10.205078 C 27.361328 9.8475578 27.47943 9.5127695 27.71875 9.2050781 C 27.954472 8.9103959 28.266303 8.7157687 28.644531 8.609375 C 28.355152 8.2909422 28.205078 7.8735193 28.205078 7.359375 C 28.205074 6.5584364 28.490425 5.8159734 29.058594 5.1328125 C 29.667952 4.3948182 30.404019 4.0234375 31.253906 4.0234375 z M 36.5 4.0234375 L 37.507812 4.0234375 C 37.830025 4.0234375 38.083601 4.1077834 38.253906 4.2851562 C 38.422171 4.4604167 38.503906 4.6830778 38.503906 4.953125 C 38.503906 5.3526967 38.35114 5.7221146 38.050781 6.0566406 C 37.805894 6.3321153 37.513962 6.5094766 37.183594 6.5800781 C 37.340762 6.6233159 37.476758 6.6990497 37.578125 6.8046875 C 37.746314 6.9799366 37.826172 7.2045621 37.826172 7.4746094 C 37.826172 7.8737313 37.681256 8.2377396 37.380859 8.5722656 C 37.135995 8.8477365 36.844003 9.0251016 36.513672 9.0957031 C 36.67084 9.1389031 36.806836 9.2147125 36.908203 9.3203125 C 37.076846 9.4959547 37.152344 9.7189147 37.152344 9.9882812 C 37.152344 10.387407 37.005475 10.751412 36.705078 11.085938 C 36.376762 11.455311 35.964647 11.648437 35.484375 11.648438 L 34.476562 11.648438 C 33.93595 11.648438 33.526574 11.501607 33.251953 11.201172 C 32.97734 10.900745 32.84375 10.455508 32.84375 9.8691406 C 32.84375 9.3733951 32.953055 8.685606 33.181641 7.8183594 C 33.457259 6.8099814 33.76187 6.0437938 34.09375 5.5019531 C 34.702583 4.521041 35.507213 4.0234375 36.5 4.0234375 z "
       transform="matrix(0.26458333,0,0,0.26458333,61.616774,76.528594)"
       id="path4609" />
    <path
       style="font-style:italic;font-variant:normal;font-weight:normal;font-stretch:normal;font-size:4.68405533px;line-height:1.56832194px;font-family:Legothick;-inkscape-font-specification:'Legothick Italic';letter-spacing:0px;word-spacing:0px;fill:#000000;fill-opacity:1;stroke:none;stroke-width:0.13475104px;stroke-linecap:butt;stroke-linejoin:miter;stroke-opacity:1"
       d="M 18.197266 4.6015625 C 17.517926 4.6015625 16.962856 4.9113237 16.525391 5.5410156 C 16.180819 6.0313678 15.875088 6.7825461 15.607422 7.7929688 L 14.923828 10.359375 L 14.923828 10.365234 C 14.905308 10.441165 14.892578 10.507585 14.892578 10.568359 C 14.892578 10.735679 14.938411 10.854564 15.027344 10.933594 C 15.116295 11.012624 15.252468 11.054688 15.441406 11.054688 C 15.641657 11.054688 15.826167 10.992845 16.001953 10.869141 C 16.183446 10.739491 16.302972 10.57255 16.361328 10.345703 C 16.361139 10.343435 16.361139 10.342017 16.361328 10.339844 L 16.78125 8.7578125 C 16.799392 8.6925401 16.833715 8.6394211 16.876953 8.6035156 C 16.920191 8.5679881 16.971811 8.5527344 17.035156 8.5527344 L 17.695312 8.5527344 C 17.758657 8.5527344 17.811939 8.5739875 17.841797 8.6171875 C 17.871277 8.6603875 17.871657 8.7175905 17.853516 8.7832031 L 17.425781 10.359375 L 17.425781 10.365234 C 17.408017 10.439464 17.400391 10.505317 17.400391 10.568359 C 17.400391 10.735868 17.445896 10.854715 17.533203 10.933594 C 17.620544 11.012435 17.754421 11.054688 17.943359 11.054688 C 18.136656 11.054688 18.322299 10.992845 18.498047 10.869141 C 18.67954 10.739507 18.79632 10.567371 18.861328 10.339844 L 19.539062 7.8183594 C 19.54133 7.8181704 19.542749 7.8181704 19.544922 7.8183594 L 19.556641 7.7753906 C 19.764099 6.9922763 19.871094 6.3742231 19.871094 5.9238281 C 19.871094 5.4766647 19.770477 5.1451706 19.576172 4.9277344 C 19.381881 4.7102982 19.090746 4.6015625 18.695312 4.6015625 L 18.197266 4.6015625 z M 18.025391 6.1035156 C 18.226613 6.1035156 18.326172 6.2467027 18.326172 6.5351562 C 18.326172 6.6358051 18.310982 6.7514606 18.277344 6.8789062 C 18.243819 7.0063519 18.159564 7.073275 18.025391 7.0800781 L 17.521484 7.0800781 C 17.387273 7.073275 17.334493 7.0062763 17.361328 6.8789062 C 17.502187 6.36243 17.723558 6.1035156 18.025391 6.1035156 z "
       transform="matrix(0.26458333,0,0,0.26458333,61.616774,76.528594)"
       id="path4586" />
    <path
       style="font-style:italic;font-variant:normal;font-weight:normal;font-stretch:normal;font-size:4.68405533px;line-height:1.56832194px;font-family:Legothick;-inkscape-font-specification:'Legothick Italic';letter-spacing:0px;word-spacing:0px;fill:#000000;fill-opacity:1;stroke:none;stroke-width:0.03565288px;stroke-linecap:butt;stroke-linejoin:miter;stroke-opacity:1"
       d="m 69.85077,77.746217 h 0.133572 c 0.126277,0 0.221879,0.02835 0.286799,0.0813 0.0565,0.04623 0.08443,0.103747 0.08443,0.175564 0,0.06658 -0.02582,0.125627 -0.07416,0.179138 -0.04616,0.0513 -0.102112,0.07594 -0.174224,0.07594 -0.05603,0 -0.09302,-0.01945 -0.116149,-0.06076 -0.02465,-0.04743 -0.06904,-0.07282 -0.128658,-0.07282 -0.05579,0 -0.09702,0.0049 -0.124637,0.01876 -0.03873,0.01936 -0.07068,0.05998 -0.09783,0.119723 a 0.01039416,0.01039416 0 0 0 0,0.0018 0.01039416,0.01039416 0 0 0 0,0.0018 c -0.0028,0.03107 -0.0019,0.05742 0.0049,0.07907 0.0067,0.02165 0.01958,0.03884 0.03708,0.04914 0.01139,0.0068 0.02767,0.01085 0.04914,0.0134 0.02147,0.0025 0.04778,0.0036 0.08086,0.0036 0.107883,0.0017 0.185139,0.03649 0.238106,0.101408 0.05335,0.06368 0.08086,0.143738 0.08086,0.244806 0,0.166264 -0.05607,0.320169 -0.170204,0.46415 -0.122757,0.156079 -0.270171,0.234533 -0.442707,0.234533 h -0.133125 c -0.126275,0 -0.220471,-0.02785 -0.285459,-0.08086 -0.05664,-0.04806 -0.08443,-0.105582 -0.08443,-0.175564 0,-0.06675 0.0246,-0.125752 0.07103,-0.177351 0.048,-0.05314 0.105386,-0.07952 0.17735,-0.07952 0.05768,0 0.09152,0.02146 0.111235,0.06254 0.02284,0.0476 0.06736,0.07103 0.125084,0.07103 0.06105,0 0.105203,-0.0048 0.133125,-0.01876 0.03872,-0.01936 0.07112,-0.05998 0.09828,-0.119723 a 0.01039416,0.01039416 0 0 0 0,-0.0018 0.01039416,0.01039416 0 0 0 0,-0.0018 c 0.0028,-0.03106 0.0015,-0.0578 -0.0054,-0.07907 -0.0067,-0.02126 -0.01971,-0.03713 -0.03708,-0.04735 -0.01138,-0.0068 -0.02722,-0.01085 -0.04869,-0.0134 -0.02147,-0.0025 -0.04823,-0.0036 -0.08131,-0.0036 -0.107784,-0.0017 -0.186439,-0.03777 -0.241233,-0.104534 -0.05154,-0.06185 -0.07952,-0.142403 -0.07952,-0.243467 0,-0.166194 0.05783,-0.320132 0.17199,-0.46415 0.122764,-0.156088 0.268316,-0.233192 0.44092,-0.233192 z"
       id="path4580" />
    <path
       style="font-style:italic;font-variant:normal;font-weight:normal;font-stretch:normal;font-size:4.68405533px;line-height:1.56832194px;font-family:Legothick;-inkscape-font-specification:'Legothick Italic';letter-spacing:0px;word-spacing:0px;fill:#000000;fill-opacity:1;stroke:none;stroke-width:0.03565288px;stroke-linecap:butt;stroke-linejoin:miter;stroke-opacity:1"
       d="m 71.240533,77.746217 h 0.26491 c 0.04895,0 0.08361,0.0113 0.106321,0.03216 0.02271,0.02086 0.03529,0.05318 0.03529,0.09828 0,0.05928 -0.02411,0.116764 -0.07237,0.170203 -0.04787,0.053 -0.10531,0.07773 -0.177351,0.07773 h -0.129998 c -0.06685,0 -0.117273,0.01052 -0.148761,0.03217 -0.04628,0.03278 -0.08389,0.102039 -0.117936,0.209515 l -0.0018,0.0049 c -0.0033,0.0097 -0.0042,0.02038 0.0018,0.02859 0.006,0.0082 0.01545,0.01102 0.0268,0.01206 a 0.01072232,0.01072232 0 0 0 0.0018,0 h 0.298861 c 0.04889,0 0.08357,0.01223 0.106321,0.03351 0.02275,0.02128 0.03574,0.05273 0.03574,0.09783 0,0.05929 -0.02448,0.115344 -0.07282,0.168863 -0.04786,0.05299 -0.107259,0.07952 -0.179138,0.07952 h -0.291713 a 0.01072232,0.01072232 0 0 0 -0.0018,0 c -0.01175,9.51e-4 -0.02069,0.0029 -0.02904,0.0085 -0.0075,0.005 -0.01387,0.01298 -0.01653,0.02189 l -0.0036,0.0067 a 0.01072232,0.01072232 0 0 0 0,0.0018 0.01072232,0.01072232 0 0 0 0,0.0018 c -0.01076,0.052 -0.01519,0.09346 -0.01519,0.126424 0,0.02584 0.0024,0.04675 0.01028,0.06433 0.0079,0.01757 0.02074,0.03249 0.03708,0.04065 0.02128,0.01063 0.056,0.0134 0.108108,0.0134 h 0.133125 c 0.0489,0 0.08357,0.01268 0.106321,0.03395 0.02275,0.02128 0.03574,0.05273 0.03574,0.09783 0,0.05928 -0.02449,0.115346 -0.07282,0.168864 -0.04794,0.05308 -0.105471,0.07907 -0.177351,0.07907 h -0.266697 c -0.104467,0 -0.180154,-0.02847 -0.230958,-0.08577 -0.0508,-0.05731 -0.07773,-0.145358 -0.07773,-0.26357 0,-0.120844 0.02776,-0.288789 0.08443,-0.503015 0.07435,-0.272646 0.156803,-0.473445 0.246147,-0.603082 0.117447,-0.170038 0.264621,-0.254635 0.444047,-0.254635 z"
       id="path4574" />
    <path
       style="font-style:italic;font-variant:normal;font-weight:normal;font-stretch:normal;font-size:4.68405533px;line-height:1.56832194px;font-family:Legothick;-inkscape-font-specification:'Legothick Italic';letter-spacing:0px;word-spacing:0px;fill:#000000;fill-opacity:1;stroke:none;stroke-width:0.04694496px;stroke-linecap:butt;stroke-linejoin:miter;stroke-opacity:1"
       d="m 67.851662,77.145815 c 0.114503,0 0.180202,0.05254 0.19656,0.157695 l 0.101407,0.630779 c 0,0.0047 0.0037,0.0071 0.01072,0.0071 0.0093,0.0024 0.01509,-1.17e-4 0.01742,-0.0071 l 0.43824,-0.630779 c 0.07478,-0.105158 0.169168,-0.157695 0.283672,-0.157695 0.05842,0 0.106457,0.01766 0.143846,0.05271 0.03972,0.03272 0.05986,0.07828 0.05986,0.136699 0,0.02337 -0.0037,0.04755 -0.01072,0.07326 l -0.469511,1.752959 c -0.02104,0.08179 -0.06457,0.145803 -0.129997,0.19254 -0.06309,0.0444 -0.129584,0.06656 -0.199688,0.06656 -0.137871,0 -0.206835,-0.06075 -0.206835,-0.182265 0,-0.02337 0.0037,-0.04879 0.01072,-0.07684 l 0.112128,-0.410096 c 0.0024,-0.01168 0.0011,-0.01787 -0.0036,-0.01787 -0.007,-0.0024 -0.01196,1.17e-4 -0.0143,0.0071 -0.07478,0.105158 -0.169168,0.157695 -0.283672,0.157695 -0.11684,0 -0.18333,-0.05254 -0.199687,-0.157695 -0.0024,-0.0093 -0.0073,-0.01183 -0.0143,-0.0071 -0.0047,0.0047 -0.0079,0.01086 -0.01027,0.01787 L 67.5751,79.161438 c -0.02337,0.08179 -0.06814,0.145803 -0.133571,0.19254 -0.06309,0.0444 -0.129584,0.06656 -0.199688,0.06656 -0.137871,0 -0.206835,-0.06075 -0.206835,-0.182265 0,-0.02337 0.0037,-0.04879 0.01072,-0.07684 l 0.469511,-1.752959 c 0.02337,-0.07945 0.0677,-0.14223 0.133124,-0.188966 0.06543,-0.04908 0.133158,-0.07371 0.203261,-0.07371 z"
       id="path4579" />
    <path
       style="font-style:italic;font-variant:normal;font-weight:normal;font-stretch:normal;font-size:4.68405533px;line-height:1.56832194px;font-family:Legothick;-inkscape-font-specification:'Legothick Italic';letter-spacing:0px;word-spacing:0px;fill:#00ffff;fill-opacity:1;stroke:none;stroke-width:0.04694496px;stroke-linecap:butt;stroke-linejoin:miter;stroke-opacity:1"
       d="m 72.671926,79.280504 -0.154229,-0.676512 q -0.007,-0.02454 -0.02103,-0.02454 -0.01402,0.0035 -0.02102,0.03155 l -0.147219,0.550324 q -0.03505,0.122684 -0.133198,0.192789 -0.09464,0.0666 -0.199796,0.0666 -0.206807,0 -0.206807,-0.182272 0,-0.03505 0.01051,-0.07712 l 0.469697,-1.752624 q 0.03505,-0.122684 0.136703,-0.196294 0.09113,-0.06309 0.196291,-0.06309 0.206806,0 0.206806,0.182274 0,0.03505 -0.01402,0.07711 l -0.14722,0.550325 q -0.007,0.02804 0.007,0.03155 0.01402,0 0.03155,-0.02453 l 0.51877,-0.676513 q 0.112166,-0.143715 0.26289,-0.143715 0.09114,0 0.154228,0.05608 0.06309,0.05608 0.06309,0.14021 0,0.09114 -0.0701,0.185779 L 73.061,78.246459 q -0.03155,0.03856 -0.02103,0.07712 l 0.168249,0.718575 q 0.0035,0.03155 0.0035,0.05959 0,0.129694 -0.115672,0.227842 -0.112166,0.09464 -0.238353,0.09464 -0.150724,0 -0.185776,-0.143716 z"
       id="path4585" />
    <path
       style="font-style:italic;font-variant:normal;font-weight:normal;font-stretch:normal;font-size:4.68405533px;line-height:1.56832194px;font-family:Legothick;-inkscape-font-specification:'Legothick Italic';letter-spacing:0px;word-spacing:0px;fill:#000000;fill-opacity:1;stroke:none;stroke-width:0.04694496px;stroke-linecap:butt;stroke-linejoin:miter;stroke-opacity:1"
       d="m 65.055428,78.481308 q -0.04207,0.01051 -0.05959,0.06309 l -0.164745,0.616923 q -0.03505,0.122684 -0.133197,0.192789 -0.09464,0.0666 -0.199796,0.0666 -0.203303,0 -0.203303,-0.182273 0,-0.03505 0.01051,-0.07711 l 0.161239,-0.609913 q 0.01051,-0.04557 -0.02102,-0.07011 -0.213818,-0.105157 -0.213818,-0.448671 0,-0.238356 0.105157,-0.623935 v 0 q 0.03505,-0.122683 0.136702,-0.196292 0.09114,-0.06309 0.196291,-0.06309 0.206808,0 0.206808,0.182273 0,0.03505 -0.01402,0.07712 v 0 q -0.08412,0.318977 -0.08412,0.452177 0,0.136705 0.09815,0.154231 0.09464,-0.01752 0.161239,-0.126189 0.08062,-0.133199 0.17526,-0.480219 h -0.0035 q 0.03505,-0.122684 0.133197,-0.196294 0.09464,-0.06309 0.199797,-0.06309 0.203301,0 0.203301,0.182274 0,0.03505 -0.01051,0.07711 h 0.0035 q -0.241859,0.90085 -0.683514,1.072607 z"
       id="path4607" />
  </g>
  <g
     inkscape:groupmode="layer"
     id="layer3"
     inkscape:label="_Mask"
     style="display:none">
    <path
       inkscape:connector-curvature="0"
       id="path4504"
       d="m 11.436261,2.3420433 q 0.22015,0 0.332566,0.1171018 0.112417,0.1171028 0.112417,0.2997821 0,0.2716768 -0.206097,0.5011974 -0.224833,0.2529407 -0.552715,0.2529407 H 10.65403 q -0.7447602,0 -0.7447602,-0.8103475 0,-0.3419384 0.1592572,-0.9461855 Q 10.260572,1.0539196 10.490089,0.67919201 10.911651,-6.0910359e-7 11.595518,-6.0910359e-7 h 0.468403 q 0.220149,0 0.332566,0.11710279910359 0.112416,0.11710179 0.112416,0.29978104 0,0.27167684 -0.206097,0.5011974 -0.224833,0.25294077 -0.552715,0.25294077 0.22015,0 0.332566,0.1171028 0.112416,0.1171017 0.112416,0.299781 0,0.2716768 -0.206096,0.5011974 -0.224834,0.2529407 -0.552716,0.2529407 z"
       style="font-style:italic;font-variant:normal;font-weight:normal;font-stretch:normal;font-size:4.68405533px;line-height:1.56832194px;font-family:Legothick;-inkscape-font-specification:'Legothick Italic';letter-spacing:0px;word-spacing:0px;display:inline;fill:#000000;fill-opacity:1;stroke:none;stroke-width:0.06273288px;stroke-linecap:butt;stroke-linejoin:miter;stroke-opacity:1" />
    <path
       style="font-style:italic;font-variant:normal;font-weight:normal;font-stretch:normal;font-size:4.68405533px;line-height:1.56832194px;font-family:Legothick;-inkscape-font-specification:'Legothick Italic';letter-spacing:0px;word-spacing:0px;display:inline;fill:#000000;fill-opacity:1;stroke:none;stroke-width:0.06273288px;stroke-linecap:butt;stroke-linejoin:miter;stroke-opacity:1"
       d="m 1.3208894,0.56677424 q 0.01874,-0.0843106 0.01874,-0.15457505 0,-0.19673133 -0.1311521,-0.29978103 -0.1264692,-0.10773474 -0.31851385,-0.10773474 -0.23888537,0 -0.44029799,0.14520699 -0.22951743,0.16394311 -0.30446191,0.43561996 l -0.0094,0.0374703 Q -3.2461402e-5,1.1288621 -3.2461402e-5,1.4708004 q 0,0.5105655 0.299776951402,0.7119808 L 0.10301583,2.9275513 q -0.02341984,0.089001 -0.02341984,0.1733112 0,0.1920473 0.13583707,0.304466 0.12178517,0.1030497 0.31851383,0.1030497 0.23888536,0 0.44029798,-0.1452069 Q 1.1990783,3.1992281 1.2740228,2.9275513 L 1.4707515,2.1827812 Q 2.1499348,1.8455269 2.4825006,0.60892853 l 0.0047,-0.0234202 q 0.02342,-0.0890006 0.02342,-0.16862714 0,-0.19673134 -0.1311521,-0.30446507 -0.1311531,-0.10773474 -0.3278818,-0.10773474 -0.2295174,0 -0.43093,0.14052296 -0.2201495,0.15457505 -0.299778,0.42156786 z"
       id="path4496"
       inkscape:connector-curvature="0" />
    <path
       style="font-style:italic;font-variant:normal;font-weight:normal;font-stretch:normal;font-size:4.68405533px;line-height:1.56832194px;font-family:Legothick;-inkscape-font-specification:'Legothick Italic';letter-spacing:0px;word-spacing:0px;display:inline;fill:#000000;fill-opacity:1;stroke:none;stroke-width:0.06273288px;stroke-linecap:butt;stroke-linejoin:miter;stroke-opacity:1"
       d="M 4.0809526,-6.0910361e-7 H 3.8467512 q -1.0539058,0 -1.5082557,1.70032360910361 L 2.0106138,2.9275543 q -0.02342,0.089001 -0.02342,0.1686271 0,0.1967314 0.1311521,0.3044651 0.1311532,0.1077347 0.3231978,0.1077347 0.2295175,0 0.4262461,-0.1358389 0.2201495,-0.154575 0.3044619,-0.4168838 -0.01874,0.07494 -0.01874,0.1405229 0,0.1967314 0.135836,0.3091501 0.1217852,0.1030497 0.3138299,0.1030497 0.2388854,0 0.4449819,-0.1452069 0.2248335,-0.1639432 0.299778,-0.43562 L 4.5118787,2.3139391 v 0 q 0.0047,0 0.1686248,-0.6136161 0.145204,-0.5480378 0.145204,-0.88529207 0,-0.81503153910364 -0.7447589,-0.81503153910364 z"
       id="path4498"
       inkscape:connector-curvature="0" />
    <path
       style="font-style:italic;font-variant:normal;font-weight:normal;font-stretch:normal;font-size:4.68405533px;line-height:1.56832194px;font-family:Legothick;-inkscape-font-specification:'Legothick Italic';letter-spacing:0px;word-spacing:0px;display:inline;fill:#000000;fill-opacity:1;stroke:none;stroke-width:0.06273288px;stroke-linecap:butt;stroke-linejoin:miter;stroke-opacity:1"
       d="M 6.657899,0.35599081 6.3909098,0.74008542 6.3300202,0.35599081 q -0.06089,-0.35130739 -0.4402979,-0.35130739 -0.2342014,0 -0.449666,0.14989102 Q 5.2152229,0.31851756 5.1402784,0.58551037 L 4.5126197,2.9275543 q -0.02342,0.089001 -0.02342,0.1733112 0,0.1920473 0.1311531,0.299781 0.1311521,0.1077347 0.3231978,0.1077347 0.2388854,0 0.444982,-0.1452069 0.2248334,-0.1639432 0.2997769,-0.43562 l 0.03279,-0.1358389 q 0.1124162,0.02342 0.2342014,0 l -0.03747,0.1358389 q -0.02342,0.089001 -0.02342,0.1733112 0,0.1920473 0.1311521,0.299781 0.1311531,0.1077347 0.3231978,0.1077347 0.2388854,0 0.444983,-0.1452069 0.2248324,-0.1639432 0.295093,-0.43562 l 0.627659,-2.34204393 q 0.02342,-0.0843106 0.02342,-0.16394311 0,-0.19204731 -0.1311531,-0.30446507 -0.1311521,-0.11241877 -0.3278818,-0.11241877 -0.3794054,0 -0.6229747,0.35130739 z"
       id="path4500"
       inkscape:connector-curvature="0" />
    <path
       style="font-style:italic;font-variant:normal;font-weight:normal;font-stretch:normal;font-size:4.68405533px;line-height:1.56832194px;font-family:Legothick;-inkscape-font-specification:'Legothick Italic';letter-spacing:0px;word-spacing:0px;display:inline;fill:#000000;fill-opacity:1;stroke:none;stroke-width:0.06273288px;stroke-linecap:butt;stroke-linejoin:miter;stroke-opacity:1"
       d="m 9.5940499,1.3864898 q 0.2763571,-0.070261 0.4496661,-0.2857299 0.159257,-0.20609943 0.159257,-0.44967208 0,-0.27636088 -0.201413,-0.44967206 Q 9.7720427,-6.0910361e-7 9.3504806,-6.0910361e-7 H 9.1162792 q -0.585503,0 -1.0070651,0.51056546910361 -0.3934573,0.47309322 -0.3934573,1.02581494 0,0.3700436 0.2154645,0.5901951 -0.2763571,0.07026 -0.444982,0.2810459 -0.1639408,0.2107834 -0.1639408,0.4543561 0,0.2716768 0.2014126,0.449672 0.2295174,0.2014164 0.6510795,0.2014164 H 8.408992 q 0.5761351,0 1.0023812,-0.5105655 0.3981412,-0.4730932 0.3981412,-1.0211309 0,-0.3747276 -0.2154645,-0.5948791 z"
       id="path4502"
       inkscape:connector-curvature="0" />
    <path
       style="font-style:italic;font-variant:normal;font-weight:normal;font-stretch:normal;font-size:4.68405533px;line-height:1.56832194px;font-family:Legothick;-inkscape-font-specification:'Legothick Italic';letter-spacing:0px;word-spacing:0px;display:inline;fill:#000000;fill-opacity:1;stroke:none;stroke-width:0.06273288px;stroke-linecap:butt;stroke-linejoin:miter;stroke-opacity:1"
       d="m 14.356603,2.6652455 -0.21078,-0.9087132 0.697919,-0.90871314 q 0.159257,-0.21078344 0.159257,-0.40751478 0,-0.1920483 -0.140521,-0.31383413 Q 14.726641,-6.0910361e-7 14.525228,-6.0910361e-7 q -0.33725,0 -0.585503,0.32320219910361 L 13.827309,0.46840858 Q 13.841359,0.24357205 13.705524,0.11710219 13.58374,0.00468342 13.382326,0.00468342 q -0.238884,0 -0.444982,0.14989102 -0.229516,0.16394312 -0.304461,0.43093593 l -0.62766,2.34204393 q -0.02342,0.089001 -0.02342,0.1686271 0,0.1920474 0.140521,0.3044651 0.126468,0.1077347 0.318512,0.1077347 0.206098,0 0.388775,-0.1124187 0.201412,-0.1264699 0.304462,-0.3513064 0.112416,0.4684092 0.496505,0.4684092 0.304462,0 0.552716,-0.2669928 0.248253,-0.2716779 0.173309,-0.580827 z"
       id="path4524"
       inkscape:connector-curvature="0" />
  </g>
  <g
     inkscape:groupmode="layer"
     id="layer2"
     inkscape:label="_Cu"
     style="display:none">
    <path
       style="font-style:italic;font-variant:normal;font-weight:normal;font-stretch:normal;font-size:4.68405533px;line-height:1.56832194px;font-family:Legothick;-inkscape-font-specification:'Legothick Italic';letter-spacing:0px;word-spacing:0px;fill:#ffcc00;fill-opacity:1;stroke:none;stroke-width:0.06273288px;stroke-linecap:butt;stroke-linejoin:miter;stroke-opacity:1"
       d="m 1.3396294,2.0188411 q -0.05621,0.01405 -0.07963,0.084311 L 1.0398514,2.9275513 Q 0.9930117,3.0914944 0.86185864,3.185176 0.73538951,3.274177 0.59486947,3.274177 q -0.27167414,0 -0.27167414,-0.2435727 0,-0.04684 0.0140499,-0.1030497 L 0.55270976,2.1125228 Q 0.56675966,2.0516323 0.52460995,2.0188421 0.2388839,1.8783192 0.2388839,1.419279 q 0,-0.3185181 0.14052104,-0.83376763 v 0 q 0.0468397,-0.16394311 0.18267675,-0.26230878 0.12178517,-0.0843106 0.26230521,-0.0843106 0.2763581,0 0.2763581,0.24357265 0,0.0468403 -0.01874,0.1030497 v 0 Q 0.96958891,1.0117663 0.96958891,1.1897615 q 0,0.1826802 0.13115309,0.2061004 0.1264681,-0.02342 0.2154645,-0.1686272 0.1077323,-0.1779952 0.2342014,-0.64172033 h -0.0047 q 0.04684,-0.16394311 0.1779927,-0.26230878 0.1264682,-0.0843106 0.2669892,-0.0843106 0.2716732,0 0.2716732,0.24357265 0,0.0468403 -0.01405,0.1030497 h 0.0047 Q 1.9298153,1.7893276 1.3396284,2.0188481 Z"
       id="path4542"
       inkscape:connector-curvature="0" />
    <path
       style="font-style:italic;font-variant:normal;font-weight:normal;font-stretch:normal;font-size:4.68405533px;line-height:1.56832194px;font-family:Legothick;-inkscape-font-specification:'Legothick Italic';letter-spacing:0px;word-spacing:0px;fill:#ffcc00;fill-opacity:1;stroke:none;stroke-width:0.23710066px;stroke-linecap:butt;stroke-linejoin:miter;stroke-opacity:1"
       d="m 14.308594,0.88476562 c -1.215634,10e-9 -2.21324,0.56041098 -2.992188,1.68164058 C 10.702688,3.4397855 10.15959,4.7686136 9.6875,6.5507812 L 8.484375,11.064453 c -0.035402,0.141631 -0.052734,0.272603 -0.052734,0.390625 0,0.613727 0.3428131,0.919922 1.0273438,0.919922 0.3658708,0 0.7067302,-0.111683 1.0253902,-0.335938 0.330454,-0.236048 0.55002,-0.561524 0.65625,-0.974609 l 0.742187,-2.7792968 c 0.05901,-0.2124371 0.189986,-0.3183593 0.390626,-0.3183593 h 1.15039 c 0.200643,0 0.271902,0.1059222 0.212891,0.3183593 l -0.744141,2.7792968 c -0.0354,0.141631 -0.05273,0.272603 -0.05273,0.390625 0,0.613727 0.34086,0.919922 1.02539,0.919922 0.354067,0 0.691104,-0.111683 1.009766,-0.335938 0.330464,-0.236048 0.555806,-0.561524 0.673828,-0.974609 l 1.185547,-4.4257811 0.03516,-0.087891 c 0.365871,-1.3808851 0.548828,-2.4728278 0.548828,-3.2753906 0,-1.5933286 -0.708727,-2.39062498 -2.125,-2.39062498 z M 14.007812,3.59375 c 0.354069,0 0.531251,0.2542155 0.53125,0.7617188 0,0.1770355 -0.02888,0.3773153 -0.08789,0.6015624 -0.05901,0.2242545 -0.207312,0.3417235 -0.44336,0.3535157 H 13.123047 C 12.887005,5.2987044 12.792627,5.1812353 12.839844,4.9570312 13.087703,4.0482453 13.476724,3.59375 14.007812,3.59375 Z"
       transform="scale(0.26458333)"
       id="path4536"
       inkscape:connector-curvature="0" />
    <path
       style="font-style:italic;font-variant:normal;font-weight:normal;font-stretch:normal;font-size:4.68405533px;line-height:1.56832194px;font-family:Legothick;-inkscape-font-specification:'Legothick Italic';letter-spacing:0px;word-spacing:0px;fill:#ffcc00;fill-opacity:1;stroke:none;stroke-width:0.06273288px;stroke-linecap:butt;stroke-linejoin:miter;stroke-opacity:1"
       d="M 6.8546277,2.9275543 Q 6.8124677,3.0914974 6.6813188,3.185179 6.5548507,3.27418 6.4143297,3.27418 q -0.2763571,0 -0.2763571,-0.2435727 0,-0.04684 0.01405,-0.1030497 l 0.1498888,-0.548039 q 0.0047,-0.02342 -0.0047,-0.02342 -0.01405,-0.0047 -0.01874,0.0094 -0.149888,0.2107844 -0.3794054,0.2107844 -0.2342014,0 -0.2669892,-0.2107844 -0.0047,-0.01874 -0.01874,-0.0094 -0.0094,0.0094 -0.01405,0.02342 L 5.4540828,2.9275573 Q 5.4072428,3.0915004 5.27609,3.185182 5.1496209,3.274183 5.0090999,3.274183 q -0.2763571,0 -0.2763571,-0.2435727 0,-0.04684 0.01405,-0.1030497 l 0.627684,-2.34205023 q 0.04684,-0.15925908 0.1779928,-0.25294072 0.1311521,-0.0983707 0.2716731,-0.0983707 0.2295174,0 0.2623052,0.21078444 L 6.222285,1.2881192 q 0,0.0094 0.01405,0.0094 0.01874,0.0047 0.02342,-0.0094 L 6.845258,0.44498342 q 0.149889,-0.21078444 0.3794064,-0.21078444 0.1171002,0 0.1920447,0.0702605 0.079629,0.0655805 0.079629,0.18267924 0,0.0468403 -0.01405,0.0983707 z"
       id="path4532"
       inkscape:connector-curvature="0" />
    <path
       style="font-style:italic;font-variant:normal;font-weight:normal;font-stretch:normal;font-size:4.68405533px;line-height:1.56832194px;font-family:Legothick;-inkscape-font-specification:'Legothick Italic';letter-spacing:0px;word-spacing:0px;fill:#ffcc00;fill-opacity:1;stroke:none;stroke-width:0.06273288px;stroke-linecap:butt;stroke-linejoin:miter;stroke-opacity:1"
       d="M 8.4698836,3.2788607 H 8.2356832 q -0.3372497,0 -0.5152425,-0.145207 -0.1545729,-0.1311539 -0.1545729,-0.3232012 0,-0.1826802 0.1264681,-0.3232022 0.1311531,-0.145207 0.3278818,-0.145207 0.1592569,0 0.2154655,0.1171018 0.05621,0.1171028 0.2014126,0.1171028 0.1592569,0 0.2248335,-0.03279 0.093679,-0.04684 0.1639409,-0.2014154 0.01405,-0.1592591 -0.06558,-0.2060994 -0.04684,-0.0281 -0.2201495,-0.0281 -0.290409,-0.0047 -0.440298,-0.1873632 -0.140521,-0.1686272 -0.140521,-0.440304 0,-0.4449881 0.3044619,-0.82908368 0.3278822,-0.41688424 0.7916,-0.41688424 H 9.289585 q 0.3372497,0 0.5152425,0.14520699 0.1545729,0.12646986 0.1545729,0.3232022 0,0.18267924 -0.1311521,0.32788523 -0.1264691,0.140523 -0.3231978,0.140523 -0.1545729,0 -0.2201495,-0.1171018 -0.06089,-0.11710284 -0.2107805,-0.11710284 -0.145205,0 -0.2107816,0.0327902 -0.093679,0.0468403 -0.1639409,0.20141544 -0.01405,0.159259 0.06558,0.2061004 0.04684,0.0281 0.2201495,0.0281 0.290409,0.0047 0.435614,0.1826793 0.145204,0.1733112 0.145204,0.444988 0,0.444989 -0.3044609,0.8290837 -0.3278822,0.4168839 -0.791601,0.4168829 z"
       id="path4528"
       inkscape:connector-curvature="0" />
    <path
       inkscape:connector-curvature="0"
       id="path4511"
       d="m 11.183324,3.2788607 q 0.19673,0 0.327882,-0.145207 0.131153,-0.145206 0.131153,-0.3091491 0,-0.2482567 -0.266989,-0.2482567 h -0.234202 q -0.135837,0 -0.182676,-0.02342 -0.07494,-0.03747 -0.07494,-0.1686272 0,-0.084311 0.0281,-0.2201515 l 0.0047,-0.0094 q 0.0094,-0.04216 0.06558,-0.04684 h 0.515243 q 0.196729,0 0.327882,-0.145207 0.131153,-0.145206 0.131153,-0.3091491 0,-0.2482567 -0.26699,-0.2482567 h -0.524611 q -0.05152,-0.0047 -0.03747,-0.04684 l 0.0047,-0.0094 q 0.089,-0.2810449 0.201413,-0.36067449 0.07494,-0.0515203 0.248253,-0.0515203 h 0.229518 q 0.196728,0 0.327882,-0.14520599 0.131152,-0.14520698 0.131152,-0.3091501 0,-0.24825669 -0.26699,-0.24825669 h -0.468401 q -0.482455,0 -0.796285,0.45435609 -0.238885,0.34662338 -0.435614,1.06797218 -0.149889,0.5667749 -0.149889,0.8899772 0,0.6323513 0.562083,0.6323513 z"
       style="font-style:italic;font-variant:normal;font-weight:normal;font-stretch:normal;font-size:4.68405533px;line-height:1.56832194px;font-family:Legothick;-inkscape-font-specification:'Legothick Italic';letter-spacing:0px;word-spacing:0px;fill:#ffcc00;fill-opacity:1;stroke:none;stroke-width:0.06273288px;stroke-linecap:butt;stroke-linejoin:miter;stroke-opacity:1" />
    <path
       style="font-style:italic;font-variant:normal;font-weight:normal;font-stretch:normal;font-size:4.68405533px;line-height:1.56832194px;font-family:Legothick;-inkscape-font-specification:'Legothick Italic';letter-spacing:0px;word-spacing:0px;fill:#ffcc00;fill-opacity:1;stroke:none;stroke-width:0.06273288px;stroke-linecap:butt;stroke-linejoin:miter;stroke-opacity:1"
       d="M 13.405747,3.0868134 13.199649,2.1827842 q -0.0094,-0.03279 -0.0281,-0.03279 -0.01874,0.0047 -0.0281,0.04216 l -0.19673,0.735402 q -0.04684,0.1639431 -0.177993,0.2576247 -0.126468,0.089001 -0.266989,0.089001 -0.276357,0 -0.276357,-0.2435727 0,-0.04684 0.01405,-0.1030497 l 0.62766,-2.34204413 q 0.04684,-0.16394311 0.182677,-0.26230878 0.121784,-0.0843106 0.262305,-0.0843106 0.276358,0 0.276358,0.24357265 0,0.0468403 -0.01874,0.1030497 L 13.37296,1.3209204 q -0.0094,0.03747 0.0094,0.04216 0.01874,0 0.04216,-0.03279 l 0.693235,-0.90402911 q 0.149889,-0.19204731 0.351302,-0.19204731 0.121785,0 0.206097,0.0749405 0.08431,0.0749405 0.08431,0.18736328 0,0.12178683 -0.09368,0.24825669 L 13.925708,1.705012 q -0.04216,0.05152 -0.0281,0.1030507 l 0.224833,0.9602375 q 0.0047,0.04216 0.0047,0.079631 0,0.1733111 -0.154573,0.304466 -0.149888,0.1264699 -0.318513,0.1264699 -0.201413,0 -0.248253,-0.1920473 z"
       id="path4506"
       inkscape:connector-curvature="0" />
  </g>
</svg>
